<?xml version="1.0" encoding="UTF-8"?>
<!-- Generator: Adobe Illustrator 16.0.5, SVG Export Plug-In . SVG Version: 6.00 Build 0)  -->
<!DOCTYPE svg PUBLIC "-//W3C//DTD SVG 1.1//EN" "http://www.w3.org/Graphics/SVG/1.1/DTD/svg11.dtd">
<svg version="1.1" id="Ebene_1" xmlns="http://www.w3.org/2000/svg" xmlns:xlink="http://www.w3.org/1999/xlink" x="0px" y="0px" width="83px" height="83px" viewBox="0 0 83 83" enable-background="new 0 0 83 83" xml:space="preserve">
<g>
	<g>
		<g>
			<path d="M1.854,52.896l-0.769-2.848l0.607-0.164l0.569,2.113l1.984-0.535L3.718,49.5l0.607-0.164l0.529,1.963l2.751-0.742     l0.198,0.736L1.854,52.896z"/>
		</g>
		<g>
			<path d="M6.843,47.754l-6.374-1.381l-0.097-0.814l5.866-2.824l0.097,0.795L4.834,44.24l0.292,2.42l1.624,0.326L6.843,47.754z      M1.351,45.881l3.123,0.623l-0.239-1.977L1.351,45.881z"/>
		</g>
		<g>
			<path d="M6.252,41.285l-6.159-0.248l0.031-0.762l2.604,0.104l-2.516-2.313l0.036-0.939l2.784,2.646l3.378-2.459l-0.039,0.957     l-3.001,2.135l2.91,0.115L6.252,41.285z"/>
		</g>
		<g>
			<path d="M5.339,35.721c-0.195,0-0.406-0.023-0.632-0.069l-4.155-0.849l0.152-0.747l3.774,0.771     c0.367,0.074,0.825,0.168,1.207,0.084c0.43-0.096,0.692-0.404,0.804-0.943c0.249-1.219-0.729-1.418-1.514-1.578L1.2,31.621     l0.154-0.748l4.155,0.849c1.324,0.271,1.861,1.068,1.595,2.373C6.885,35.175,6.291,35.721,5.339,35.721z"/>
		</g>
		<g>
			<path d="M7.959,30.31l-5.79-2.115l0.262-0.717l5.199,1.9l0.744-2.038l0.591,0.216L7.959,30.31z"/>
		</g>
		<g>
			<path d="M9.701,26.019l-4.96-2.452l-0.708,1.432L3.469,24.72l1.755-3.548l0.563,0.278L5.08,22.883l4.959,2.452L9.701,26.019z"/>
		</g>
		<g>
			<path d="M10.977,23.437l-3.863-5.256l0.466-0.675l6.268,1.769l-0.453,0.658l-1.596-0.46l-1.384,2.007l1.002,1.32L10.977,23.437z      M8.1,18.396l1.929,2.535l1.13-1.639L8.1,18.396z M6.417,18.548l-0.84-0.579l0.435-0.628l0.837,0.579L6.417,18.548z      M7.231,17.368l-0.839-0.579l0.433-0.627l0.839,0.578L7.231,17.368z"/>
		</g>
		<g>
			<path d="M15.292,17.719l-4.059-3.762l-1.086,1.171l-0.461-0.427l2.692-2.902l0.46,0.427l-1.086,1.172l4.058,3.761L15.292,17.719z     "/>
		</g>
		<g>
			<path d="M19.979,13.387l-3.563-5.029l2.409-1.705l0.362,0.513l-1.785,1.265l1.188,1.677l1.66-1.176l0.363,0.513l-1.659,1.176     l1.646,2.325L19.979,13.387z"/>
		</g>
		<g>
			<path d="M24.017,10.596c-0.661,0-1.202-0.398-1.615-1.193L20.444,5.64l0.677-0.352l1.777,3.417     c0.173,0.333,0.389,0.747,0.693,0.99c0.345,0.274,0.75,0.285,1.239,0.031c0.488-0.254,0.713-0.591,0.686-1.031     c-0.022-0.39-0.239-0.805-0.411-1.138l-1.777-3.417l0.676-0.352l1.957,3.763c0.34,0.655,0.411,1.233,0.21,1.717     c-0.167,0.403-0.511,0.735-1.051,1.016C24.722,10.492,24.354,10.595,24.017,10.596z M21.081,4.897l-0.469-0.903l0.676-0.352     l0.47,0.903L21.081,4.897z M22.354,4.235l-0.47-0.904l0.676-0.352l0.47,0.904L22.354,4.235z"/>
		</g>
		<g>
			<path d="M28.255,8.678l-1.982-5.835l1.796-0.61c1.198-0.407,1.7-0.187,2.071,0.905c0.229,0.672,0.255,1.168-0.27,1.596     c0.691-0.044,0.86,0.281,1.467,2.065c0.046,0.133,0.105,0.258,0.17,0.391c0.038,0.08,0.076,0.16,0.112,0.241l0.038,0.09     l-0.68,0.232l-0.041-0.054c-0.1-0.138-0.357-0.815-0.571-1.391c-0.016-0.041-0.027-0.079-0.041-0.125     c-0.067-0.226-0.194-0.646-0.534-0.821c-0.208-0.107-0.476-0.108-0.792,0l-0.953,0.324l0.932,2.745L28.255,8.678z M27.197,3.193     l0.645,1.898l0.807-0.275c0.779-0.265,1.075-0.535,0.768-1.442c-0.243-0.713-0.574-0.742-1.18-0.535L27.197,3.193z"/>
		</g>
		<g>
			<path d="M42.136,6.393c-0.029,0-0.06,0-0.089-0.001c-0.663-0.016-1.154-0.196-1.463-0.534c-0.294-0.325-0.422-0.797-0.379-1.404     l0.007-0.086l0.775,0.019l-0.002,0.091c-0.019,0.713,0.054,1.261,1.104,1.286c0.696,0.017,1.051-0.291,1.067-0.943     c0.016-0.674-0.407-0.921-1.175-1.369C41.894,3.4,41.801,3.347,41.705,3.29c-1.284-0.761-1.343-1.151-1.337-1.775     c0.007-0.453,0.146-0.812,0.411-1.067c0.324-0.312,0.823-0.462,1.496-0.446c1.743,0.042,1.71,1.339,1.7,1.765l-0.003,0.091     l-0.769-0.02V1.75c0-0.695-0.162-1.1-0.989-1.121c-0.744-0.018-1.068,0.225-1.083,0.811c-0.015,0.638,0.242,0.791,0.711,1.069     c0.135,0.08,0.287,0.171,0.451,0.284c0.161,0.112,0.325,0.209,0.483,0.302c0.626,0.37,1.167,0.689,1.144,1.661     c-0.014,0.555-0.184,0.976-0.504,1.251C43.119,6.264,42.688,6.393,42.136,6.393z"/>
		</g>
		<g>
			<path d="M47.053,6.758L46.3,6.638l0.399-2.521l-1.32-3.864l0.849,0.135l0.978,3.058l1.944-2.593l0.777,0.123l-2.473,3.262     L47.053,6.758z"/>
		</g>
		<g>
			<path d="M51.842,7.956c-0.188,0-0.388-0.032-0.599-0.093c-0.612-0.18-1.036-0.486-1.265-0.909     c-0.415-0.77-0.106-1.789,0.119-2.533l0.125-0.423c0.215-0.748,0.507-1.77,1.275-2.192c0.42-0.23,0.943-0.256,1.554-0.077     c0.536,0.158,0.905,0.422,1.102,0.785c0.294,0.545,0.11,1.147,0.032,1.404l-0.037,0.129l-0.756-0.223l0.033-0.091     c0.135-0.38,0.141-0.727,0.015-0.975c-0.104-0.203-0.295-0.346-0.565-0.426c-0.585-0.172-0.981-0.068-1.287,0.337     c-0.29,0.384-0.471,0.995-0.679,1.703l-0.033,0.108c-0.207,0.707-0.389,1.318-0.354,1.797c0.036,0.507,0.313,0.81,0.897,0.982     c0.744,0.22,1.106-0.407,1.281-0.971l0.025-0.086l0.766,0.226l-0.026,0.087c-0.067,0.232-0.232,0.67-0.566,1.001     C52.605,7.809,52.252,7.956,51.842,7.956z"/>
		</g>
		<g>
			<path d="M57.606,10.308l-0.693-0.321l1.199-2.585l-2.175-1.008L54.739,8.98L54.048,8.66l2.592-5.591l0.691,0.32l-1.129,2.435     l2.175,1.007l1.129-2.435l0.692,0.321L57.606,10.308z"/>
		</g>
		<g>
			<path d="M62.053,12.904c-0.389,0-0.797-0.146-1.218-0.435c-0.524-0.36-0.834-0.782-0.92-1.254     c-0.156-0.861,0.452-1.734,0.898-2.372l0.249-0.364c0.435-0.644,1.03-1.526,1.891-1.689c0.471-0.089,0.977,0.048,1.502,0.408     c0.524,0.36,0.834,0.782,0.92,1.254c0.156,0.862-0.453,1.734-0.898,2.372l-0.25,0.364c-0.435,0.644-1.03,1.526-1.891,1.689     C62.242,12.895,62.148,12.904,62.053,12.904z M63.351,7.438c-0.197,0-0.389,0.067-0.578,0.201     c-0.396,0.275-0.756,0.8-1.173,1.408L61.535,9.14c-0.417,0.608-0.777,1.133-0.893,1.6c-0.123,0.493,0.046,0.867,0.549,1.211     c0.501,0.345,0.911,0.369,1.327,0.078c0.395-0.275,0.754-0.8,1.172-1.408l0.063-0.094c0.418-0.607,0.778-1.132,0.894-1.599     c0.122-0.493-0.047-0.866-0.549-1.211C63.827,7.53,63.583,7.438,63.351,7.438z"/>
		</g>
		<g>
			<path d="M66.02,16.604l-2.157-1.984l4.171-4.538l0.562,0.516l-3.745,4.075l1.597,1.468L66.02,16.604z"/>
		</g>
		<g>
			<path d="M69.099,19.384c-0.039,0-0.078,0-0.116-0.003c-0.479-0.037-0.932-0.301-1.344-0.784     c-0.413-0.485-0.603-0.974-0.563-1.452c0.073-0.872,0.889-1.556,1.484-2.056l0.335-0.287c0.588-0.508,1.396-1.204,2.266-1.139     c0.479,0.036,0.931,0.3,1.345,0.784c0.412,0.484,0.601,0.973,0.562,1.451c-0.073,0.873-0.889,1.558-1.485,2.057l-0.335,0.286     C70.686,18.728,69.927,19.384,69.099,19.384z M71.149,14.362c-0.123,0-0.25,0.025-0.385,0.074     c-0.452,0.163-0.937,0.577-1.498,1.055l-0.086,0.074c-0.562,0.479-1.047,0.891-1.279,1.312c-0.245,0.444-0.179,0.849,0.216,1.313     c0.395,0.463,0.784,0.593,1.262,0.42c0.452-0.164,0.937-0.576,1.497-1.055l0.087-0.074c0.561-0.478,1.046-0.891,1.279-1.312     c0.246-0.444,0.18-0.849-0.216-1.312C71.742,14.523,71.462,14.362,71.149,14.362z"/>
		</g>
		<g>
			<path d="M72.242,24.824l-0.049-0.047c-0.445-0.418-0.834-0.903-1.156-1.443c-0.325-0.547-0.431-1.059-0.313-1.524     c0.219-0.849,1.137-1.387,1.807-1.78l0.381-0.226c0.662-0.403,1.574-0.956,2.423-0.745c0.467,0.115,0.868,0.451,1.193,0.998     c0.373,0.623,0.497,1.145,0.379,1.59c-0.104,0.393-0.388,0.715-0.869,0.986l-0.076,0.045l-0.39-0.654l0.077-0.047     c0.658-0.393,0.764-0.887,0.339-1.598c-0.313-0.523-0.674-0.715-1.174-0.625c-0.474,0.086-1.021,0.412-1.653,0.79l-0.096,0.058     c-0.634,0.378-1.181,0.705-1.481,1.08c-0.316,0.396-0.318,0.807-0.007,1.33c0.224,0.375,0.468,0.684,0.709,0.898l1.729-1.033     l-0.68-1.138l0.541-0.322l1.07,1.793L72.242,24.824z"/>
		</g>
		<g>
			<path d="M73.166,27.226l-0.311-0.696l5.624-2.519l0.313,0.695L73.166,27.226z"/>
		</g>
		<g>
			<path d="M74.901,32.068l-0.988-3.058l5.865-1.895l0.969,2.998l-0.599,0.192l-0.733-2.271l-1.956,0.633l0.7,2.168l-0.599,0.193     l-0.7-2.168l-2.113,0.682l0.753,2.332L74.901,32.068z"/>
		</g>
		<g>
			<path d="M75.981,38.625l-0.395-3.38l0.58-0.067l0.026,0.014c0.604,0.33,1.158,0.654,1.647,0.94     c1.243,0.726,2.143,1.253,2.659,1.19c0.681-0.079,0.722-0.541,0.664-1.027c-0.067-0.587-0.466-0.896-1.063-0.826l-0.091,0.011     l-0.084-0.722l0.091-0.01c1.465-0.171,1.728,1.085,1.772,1.474c0.128,1.094-0.258,1.749-1.086,1.845     c-0.734,0.086-1.221-0.189-3.259-1.354c-0.332-0.189-0.704-0.402-1.127-0.642l0.289,2.481L75.981,38.625z"/>
		</g>
		<g>
			<path d="M79.947,42.91c-0.117,0-0.232-0.002-0.346-0.004l0,0l-1.251-0.02c-1.088-0.018-2.443-0.041-2.415-1.746     c0.013-0.76,0.288-1.247,0.847-1.485c0.474-0.201,1.084-0.191,1.624-0.183l1.252,0.021c1.088,0.018,2.442,0.04,2.415,1.747     c-0.013,0.76-0.29,1.244-0.848,1.482C80.851,42.883,80.391,42.91,79.947,42.91z M77.828,40.226c-1.249,0-1.259,0.647-1.265,0.922     c-0.004,0.285-0.016,0.945,1.295,0.967l2.262,0.037c0.544,0.01,0.922-0.098,1.125-0.314c0.171-0.184,0.196-0.422,0.199-0.607     c0.005-0.283,0.015-0.943-1.294-0.965l-2.262-0.038C77.867,40.228,77.848,40.226,77.828,40.226z"/>
		</g>
		<g>
			<path d="M80.051,47.938c-0.328,0-0.668-0.045-0.984-0.088h-0.001l-1.239-0.166c-0.534-0.07-1.141-0.152-1.579-0.422     c-0.516-0.318-0.719-0.84-0.617-1.592c0.226-1.693,1.567-1.514,2.647-1.369l1.239,0.164c0.535,0.072,1.14,0.152,1.578,0.424     c0.518,0.318,0.719,0.838,0.618,1.592C81.554,47.674,80.838,47.938,80.051,47.938z M77.272,44.961     c-0.333,0-0.585,0.07-0.751,0.211c-0.191,0.162-0.243,0.395-0.269,0.58s-0.035,0.424,0.107,0.629     c0.168,0.248,0.527,0.408,1.065,0.48l2.242,0.299c0.538,0.072,0.927,0.01,1.154-0.184c0.19-0.162,0.243-0.395,0.268-0.578     c0.025-0.186,0.036-0.426-0.106-0.631c-0.169-0.246-0.528-0.406-1.066-0.479l-2.242-0.299     C77.53,44.971,77.396,44.961,77.272,44.961z"/>
		</g>
		<g>
			<path d="M79.387,52.729c-0.16,0-0.335-0.025-0.523-0.076c-0.72-0.189-1.117-0.549-1.207-1.092     c-0.396,0.639-1.087,0.551-1.598,0.418c-0.536-0.143-0.919-0.393-1.139-0.744c-0.225-0.355-0.269-0.801-0.131-1.32     c0.164-0.617,0.437-1.037,0.812-1.246c0.328-0.184,0.729-0.205,1.191-0.064l0.085,0.025l-0.194,0.736l-0.09-0.025     c-0.295-0.088-0.556-0.074-0.756,0.037c-0.198,0.111-0.34,0.32-0.419,0.619c-0.094,0.355-0.068,0.629,0.078,0.834     c0.124,0.174,0.335,0.297,0.646,0.379c0.509,0.137,0.82,0.135,1.044-0.008c0.228-0.143,0.38-0.455,0.479-0.979l0.018-0.098     l0.623,0.166l-0.034,0.092c-0.15,0.428-0.16,0.771-0.028,1.021c0.124,0.232,0.369,0.395,0.751,0.496     c0.293,0.078,0.535,0.07,0.719-0.025c0.196-0.1,0.338-0.307,0.419-0.613c0.074-0.279,0.056-0.51-0.053-0.689     c-0.116-0.189-0.335-0.32-0.651-0.389l-0.094-0.02l0.194-0.734l0.083,0.014c0.442,0.082,0.799,0.309,1.008,0.639     c0.22,0.346,0.268,0.787,0.14,1.271c-0.148,0.557-0.362,0.934-0.656,1.15C79.901,52.654,79.665,52.729,79.387,52.729z"/>
		</g>
		<g>
			<path d="M75.719,63.215l-3.672-2.121c-1.171-0.678-1.426-1.604-0.761-2.758c0.305-0.527,0.652-0.855,1.063-1.004     c0.491-0.178,1.065-0.084,1.705,0.287l3.673,2.123L77.345,60.4l-3.335-1.926c-0.324-0.189-0.729-0.422-1.117-0.463     c-0.44-0.047-0.785,0.164-1.063,0.641c-0.621,1.076,0.241,1.574,0.935,1.975l3.336,1.928L75.719,63.215z"/>
		</g>
		<g>
			<path d="M71.356,68.852l-4.737-3.943l0.657-0.789l0.055,0.014l5.455,1.266L68.9,62.166l0.487-0.586l4.738,3.943l-0.662,0.795     l-5.462-1.252l3.842,3.199L71.356,68.852z"/>
		</g>
		<g>
			<path d="M68.853,71.262l-4.197-4.514l0.559-0.52l4.197,4.514L68.853,71.262z"/>
		</g>
		<g>
			<path d="M63.675,75.357l-2.153-6.07l0.692-0.51l5.173,3.844l-0.65,0.479l-4.263-3.26l1.808,5.07L63.675,75.357z"/>
		</g>
		<g>
			<path d="M59.095,77.922l-0.299-0.555l2.103-1.131l-0.975-1.809l-2.005,1.08l-0.299-0.555l2.007-1.08l-1.054-1.955l-2.157,1.162     l-0.299-0.555l2.829-1.523l2.922,5.428L59.095,77.922z"/>
		</g>
		<g>
			<path d="M54.021,79.822c-0.162,0-0.301-0.029-0.424-0.084c-0.307-0.135-0.523-0.432-0.724-0.988     c-0.241-0.668-0.276-1.164,0.24-1.602c-0.694,0.055-0.865-0.266-1.505-2.039c-0.047-0.131-0.109-0.254-0.177-0.387     c-0.039-0.078-0.08-0.158-0.116-0.24l-0.041-0.09l0.677-0.242l0.04,0.053c0.08,0.105,0.266,0.533,0.599,1.383     c0.016,0.037,0.028,0.076,0.043,0.121c0.072,0.223,0.206,0.643,0.55,0.811c0.209,0.105,0.477,0.1,0.791-0.016l0.947-0.342     l-0.984-2.727l0.718-0.258l2.09,5.797l-1.783,0.643C54.579,79.754,54.273,79.822,54.021,79.822z M55.135,76.752l-0.803,0.289     c-0.435,0.158-0.669,0.309-0.783,0.504c-0.125,0.217-0.11,0.52,0.046,0.953c0.254,0.711,0.586,0.73,1.188,0.514l1.033-0.371     L55.135,76.752z"/>
		</g>
		<g>
			<path d="M49,81.314c-1.209,0-1.426-1.025-1.502-1.393l-0.018-0.088l0.752-0.158l0.021,0.086c0.159,0.676,0.408,1.033,1.219,0.865     c0.353-0.074,0.593-0.186,0.735-0.342c0.152-0.166,0.195-0.395,0.133-0.695c-0.131-0.623-0.417-0.715-0.936-0.879     c-0.149-0.047-0.318-0.1-0.505-0.174c-0.184-0.07-0.365-0.129-0.54-0.184c-0.694-0.217-1.294-0.402-1.493-1.355     c-0.113-0.543-0.045-0.992,0.204-1.332c0.244-0.336,0.662-0.566,1.246-0.689c0.648-0.135,1.168-0.072,1.545,0.188     c0.361,0.248,0.595,0.678,0.689,1.279l0.015,0.086l-0.759,0.158l-0.02-0.088c-0.146-0.699-0.34-1.217-1.368-1.002     c-0.346,0.074-0.588,0.209-0.723,0.404c-0.133,0.191-0.166,0.447-0.101,0.76c0.138,0.66,0.607,0.805,1.457,1.064     c0.098,0.029,0.199,0.061,0.306,0.094c1.424,0.447,1.572,0.814,1.709,1.424c0.097,0.441,0.044,0.822-0.155,1.133     c-0.245,0.377-0.701,0.637-1.355,0.775C49.352,81.295,49.166,81.314,49,81.314z"/>
		</g>
		<g>
			<path d="M44.405,81.869l-0.539-6.141l0.76-0.066l0.538,6.139L44.405,81.869z"/>
		</g>
		<g>
			<path d="M42.169,82.029l-3.957-0.092l0.014-0.631l1.599,0.037l0.127-5.533l0.764,0.02l-0.129,5.531l1.598,0.037L42.169,82.029z"/>
		</g>
		<g>
			<path d="M35.381,83l-0.754-0.121l0.164-1.006l0.754,0.123L35.381,83z M33.965,82.77l-0.753-0.121l0.163-1.006l0.753,0.123     L33.965,82.77z M34.914,81.523l-0.809-0.133l-1.088-6.422l0.79,0.129l0.267,1.639l2.406,0.391l0.764-1.469l0.764,0.123     L34.914,81.523z M34.186,77.393l0.5,3.148l1.465-2.83L34.186,77.393z"/>
		</g>
		<g>
			<path d="M30.662,80.689l-3.774-1.191l0.188-0.6l1.523,0.48l1.666-5.277l0.729,0.229l-1.666,5.279l1.522,0.48L30.662,80.689z"/>
		</g>
		<g>
			<path d="M22.352,77.488l-1.665-0.949c-0.986-0.563-1.194-1.223-0.673-2.139c0.281-0.494,0.618-0.959,1.356-0.865     c-0.543-0.609-0.336-1.199-0.047-1.707c0.562-0.984,1.41-1.217,2.391-0.658l1.689,0.963L22.352,77.488z M21.551,74.119     c-0.334,0-0.619,0.211-0.862,0.639c-0.455,0.799,0.013,1.066,0.39,1.279L22,76.563l1.005-1.764l-0.89-0.508     C21.912,74.176,21.725,74.119,21.551,74.119z M22.817,71.584c-0.041,0-0.079,0.004-0.118,0.01     c-0.27,0.039-0.492,0.223-0.693,0.576c-0.381,0.67-0.259,1.188,0.363,1.545l0.947,0.537l1.112-1.949l-0.727-0.414     C23.342,71.684,23.058,71.584,22.817,71.584z"/>
		</g>
		<g>
			<path d="M16.187,73.541l-0.646-0.506l2.139-6.148l0.631,0.492l-0.555,1.563l1.92,1.502l1.377-0.922l0.609,0.477L16.187,73.541z      M17.538,69.57l-1.077,3l2.645-1.773L17.538,69.57z"/>
		</g>
		<g>
			<path d="M12.688,70.031c-0.009,0-0.017,0-0.025,0c-0.449-0.01-0.912-0.26-1.373-0.742c-0.45-0.471-0.648-0.938-0.591-1.381     c0.046-0.357,0.254-0.707,0.634-1.07l0.065-0.063l0.531,0.557l-0.063,0.063c-0.491,0.492-0.662,0.895-0.092,1.492     c0.515,0.539,0.915,0.598,1.339,0.191c0.462-0.441,0.388-0.73,0.253-1.258c-0.038-0.15-0.083-0.324-0.117-0.52     c-0.036-0.193-0.083-0.379-0.131-0.559c-0.181-0.703-0.337-1.309,0.366-1.98c0.795-0.76,1.653-0.701,2.481,0.166     c0.457,0.479,0.679,0.953,0.657,1.41c-0.021,0.439-0.265,0.863-0.723,1.264l-0.065,0.055l-0.537-0.561l0.066-0.063     c0.228-0.217,0.455-0.451,0.522-0.721c0.075-0.297-0.054-0.613-0.395-0.971c-0.485-0.508-0.95-0.537-1.422-0.086     c-0.488,0.465-0.363,0.939-0.137,1.799c0.026,0.098,0.055,0.201,0.082,0.311c0.37,1.445,0.137,1.764-0.309,2.201     C13.391,69.875,13.047,70.031,12.688,70.031z"/>
		</g>
		<g>
			<path d="M8.682,66.115l-1.845-2.555l0.511-0.367l1.397,1.936l1.667-1.203l-1.333-1.848l0.509-0.367l1.334,1.846l1.8-1.299     l-1.433-1.988l0.509-0.367l1.881,2.604L8.682,66.115z"/>
		</g>
		<g>
			<path d="M5.544,61.428l-0.362-0.67l4.878-2.615L9.035,56.23l0.555-0.297l1.386,2.584L5.544,61.428z"/>
		</g>
		<g>
			<path d="M36.091,6.596l-0.619-6.131l1.879-0.19c0.416-0.042,1.525-0.154,1.681,1.379c0.129,1.282-0.304,1.878-1.449,1.994     L36.569,3.75l0.281,2.769L36.091,6.596z M36.294,1.014l0.213,2.11l0.985-0.099c0.469-0.048,0.889-0.225,0.791-1.196     c-0.045-0.432-0.16-0.704-0.358-0.831c-0.167-0.107-0.382-0.111-0.655-0.083L36.294,1.014z"/>
		</g>
	</g>
	<g>
		<path d="M51.647,63.914c-0.07,0.012-0.117,0.078-0.104,0.148s0.079,0.115,0.148,0.104c0.005,0,0.43-0.07,0.62,0.152    c0.161,0.188,0.09,0.533,0.002,0.787c-0.022,0.066,0.014,0.141,0.08,0.164c0.015,0.004,0.029,0.006,0.042,0.006    c0.054,0,0.104-0.033,0.122-0.086c0.158-0.465,0.142-0.814-0.052-1.039C52.221,63.816,51.67,63.91,51.647,63.914z"/>
		<path d="M40.813,69.813c0.016-0.004,1.58-0.219,2.05-0.219c0.207,0,0.549,0.064,0.912,0.133c0.415,0.08,0.844,0.16,1.153,0.16    c0.029,0,0.057,0,0.082-0.002c0.555-0.027,1.1-0.232,1.123-0.24c0.065-0.025,0.1-0.1,0.074-0.166    c-0.024-0.068-0.1-0.1-0.166-0.074c-0.005,0.002-0.53,0.197-1.046,0.225c-0.277,0.016-0.732-0.07-1.173-0.154    c-0.374-0.07-0.729-0.139-0.96-0.139c-0.486,0-2.021,0.213-2.085,0.221c-0.07,0.01-0.12,0.076-0.11,0.146    S40.741,69.82,40.813,69.813z"/>
		<path d="M44.493,68.994c0.024,0,0.052-0.008,0.074-0.023c3.692-2.66,3.813-2.947,4.267-4.014c0.116-0.273,0.247-0.582,0.469-1.002    c0.033-0.063,0.01-0.141-0.054-0.174c-0.063-0.033-0.141-0.01-0.174,0.055c-0.227,0.428-0.366,0.756-0.479,1.02    c-0.43,1.016-0.546,1.287-4.179,3.906c-0.06,0.041-0.072,0.121-0.03,0.178C44.413,68.977,44.452,68.994,44.493,68.994z"/>
		<path d="M26.135,64.869c-0.022-0.047-2.285-4.777-3.186-10.84c-0.011-0.07-0.077-0.119-0.146-0.107    c-0.07,0.01-0.119,0.076-0.109,0.145c0.908,6.104,3.187,10.867,3.209,10.916c0.022,0.045,0.069,0.072,0.116,0.072    c0.02,0,0.038-0.004,0.055-0.014C26.139,65.012,26.165,64.934,26.135,64.869z"/>
		<path d="M19.204,46.885c0.259,0.377,0.655,0.869,1.006,1.305c0.244,0.303,0.475,0.59,0.61,0.777    c0.024,0.033,0.064,0.053,0.104,0.053c0.013,0,0.024-0.002,0.038-0.006h0.005c0.171,0,0.354-0.129,0.394-0.158    c0.057-0.043,0.068-0.123,0.027-0.18c-0.044-0.057-0.124-0.068-0.182-0.027c-0.076,0.057-0.173,0.102-0.223,0.107    c-0.143-0.191-0.352-0.451-0.574-0.727c-0.343-0.428-0.73-0.91-0.984-1.275c-0.086-0.248-0.278-0.891-0.279-0.896    c-0.021-0.07-0.091-0.107-0.16-0.088s-0.107,0.092-0.087,0.16c0.007,0.027,0.204,0.686,0.289,0.926    C19.192,46.867,19.198,46.877,19.204,46.885z"/>
		<path d="M49.83,30.185c2.335,0.253,5.62,1.22,6.46,1.785c0.022,0.014,0.048,0.021,0.072,0.021c0.042,0,0.082-0.02,0.107-0.057    c0.039-0.06,0.023-0.14-0.036-0.18c-0.864-0.58-4.207-1.57-6.576-1.826c-0.069-0.008-0.134,0.043-0.142,0.113    C49.708,30.114,49.759,30.177,49.83,30.185z"/>
		<path d="M53.33,60.252c-0.021,0.004-2.116,0.379-4.726-2.775c-0.64-0.852-4.296-2.865-4.451-2.951    c-0.061-0.033-0.14-0.012-0.175,0.053c-0.034,0.063-0.012,0.141,0.05,0.174c0.039,0.021,3.766,2.074,4.374,2.883    c2.15,2.602,3.966,2.893,4.668,2.893c0.184,0,0.291-0.02,0.309-0.023c0.07-0.014,0.116-0.082,0.102-0.15    C53.467,60.283,53.4,60.236,53.33,60.252z"/>
		<path d="M25.163,46.898c0.264,0.387,0.547,1.105,0.551,1.113c0.02,0.051,0.067,0.082,0.118,0.082c0.016,0,0.032-0.004,0.048-0.01    c0.066-0.025,0.099-0.102,0.072-0.166c-0.012-0.029-0.296-0.752-0.576-1.164c-0.229-0.336-1.492-1.566-1.547-1.617    c-0.051-0.051-0.133-0.049-0.182,0.002c-0.05,0.051-0.048,0.133,0.003,0.182C24.099,45.756,24.992,46.646,25.163,46.898z"/>
		<path d="M29.196,59.455c0.006,0,0.013,0,0.018,0c0.063,0,0.119-0.045,0.128-0.109c0.188-1.287,0.224-5.381-0.424-7.307    c-0.588-1.744-1.474-5.471-1.481-5.508c-0.017-0.07-0.086-0.113-0.156-0.096c-0.068,0.016-0.111,0.086-0.095,0.154    c0.01,0.037,0.898,3.775,1.488,5.531c0.624,1.857,0.594,5.955,0.414,7.188C29.076,59.379,29.126,59.443,29.196,59.455z"/>
		<path d="M56.712,18.488c-0.884,0.445-2.613,1.514-4.257,3.674c-0.611,0.802-1.268,1.912-1.846,2.892    c-0.612,1.035-1.446,2.446-1.699,2.446c-0.005,0-0.009,0-0.012,0c0,0-0.004-0.003-0.01-0.012    c-0.043-0.057-0.124-0.068-0.182-0.025c-0.056,0.043-0.067,0.123-0.024,0.18c0.055,0.074,0.132,0.113,0.217,0.113    c0,0,0.01,0,0.016,0c0.391-0.021,0.954-0.943,1.916-2.571c0.575-0.974,1.228-2.077,1.829-2.866    c1.612-2.119,3.303-3.166,4.167-3.601c0.064-0.032,0.089-0.108,0.059-0.173C56.853,18.482,56.774,18.456,56.712,18.488z"/>
		<path d="M47.953,26.531c0.016,0.007,0.032,0.01,0.049,0.01c0.05,0,0.1-0.03,0.119-0.08c0.191-0.466,0.396-1.419,0.654-2.625    c0.191-0.889,0.407-1.896,0.667-2.939c0.572-2.303,1.133-2.959,2.358-4.393l0.206-0.241c0.046-0.055,0.04-0.136-0.015-0.181    c-0.054-0.046-0.135-0.04-0.181,0.014l-0.206,0.24c-1.253,1.467-1.825,2.137-2.413,4.498c-0.261,1.047-0.478,2.057-0.668,2.947    c-0.257,1.194-0.46,2.138-0.642,2.582C47.856,26.429,47.887,26.504,47.953,26.531z"/>
		<path d="M63.552,18.597c-0.652-1.686-1.972-2.564-2.921-2.668c-0.01-0.001-0.021-0.001-0.029,0    c-1.01,0.131-1.927,0.347-2.766,0.626c0.082-0.625,0.094-1.774,0.009-1.953c-0.149-0.315-0.929-0.727-1.549-0.984    c-0.872-0.361-1.671-0.534-2.142-0.46c-0.012,0.002-0.023,0.005-0.035,0.011c-5.88,2.751-6.723,8.398-7.128,11.112    c-0.111,0.738-0.2,1.328-0.339,1.551c-0.998-0.573-2.612-1.307-4.786-1.659c-0.189-0.03-0.33-0.119-0.431-0.272    c-0.326-0.498-0.119-1.473-0.078-1.646c1.076-0.603,0.873-2.399,0.816-2.774c0.097-0.12,0.545-0.713,0.478-1.234    c-0.002-0.008-0.006-0.016-0.009-0.023c0.116-0.083,0.206-0.179,0.261-0.292c0.171-0.344,0.004-0.704-0.085-0.856    c0.196-0.275,0.368-0.626,0.416-0.91c0.047-0.28-0.029-0.436-0.12-0.522c0.7-0.823,0.757-1.781,0.568-2.417    c-0.114-0.382-0.318-0.646-0.548-0.706c-0.397-0.102-0.768-0.067-0.882-0.053c-0.024-0.142-0.087-0.304-0.229-0.456    c-0.353-0.379-1.053-0.538-2.082-0.474c-0.085-0.229-0.358-0.83-0.924-0.963c-0.403-0.095-0.857,0.074-1.353,0.496    c-0.567-0.575-1.107-0.811-1.603-0.692c-0.542,0.131-0.899,0.651-1.104,1.064c-0.326,0.032-2.551,0.289-2.821,1.35    c-0.287,1.133,1.017,1.804,1.072,1.833c0.008,0.004,0.016,0.003,0.023,0.006l-0.071,0.577c-0.554-0.074-1.116,0.319-1.373,0.743    c-0.185,0.307-0.396,0.889-0.208,1.233c0.041,0.072,0.109,0.154,0.227,0.206c-0.049,0.177-0.034,0.567,0.611,1.175l-0.099,0.793    c-0.039,0.009-0.076,0.021-0.114,0.039c-0.094,0.048-0.162,0.133-0.197,0.246c-0.211,0.67,0.76,2.476,0.871,2.68    c0.021,0.035,0.057,0.061,0.097,0.065l0.385,0.05c0.174,0.528,1.191,3.381,3.061,3.864c0.179,0.046,0.357,0.069,0.539,0.069    c0.049,0,0.097-0.006,0.146-0.01c0.508,0.863,1.256,2.285,1.202,2.627c-0.002,0.009,0.001,0.016,0.001,0.023    c-1.137,1.252-2.066,2.48-2.362,2.881c-0.024-0.04-0.068-0.066-0.115-0.063c-0.329,0.021-0.965,0.26-1.027,1.016    c0,0,0,0.001-0.001,0.002c0,0,0,0.001,0,0.002c0,0.005,0.002,0.01,0.002,0.016c0,0.01,0.001,0.021,0.004,0.033    c0.004,0.01,0.01,0.018,0.016,0.026c0.003,0.005,0.004,0.011,0.008,0.017c0.002,0.002,0.012,0.016,0.032,0.041    c-1.33,1.084-3.476,2.754-3.849,2.848c-0.12,0.031-0.319,0.025-0.593,0.019c-0.773-0.021-2.127-0.058-4.74,0.501    c0.242-0.2,0.578-0.466,0.881-0.671c0.324-0.22,0.677-0.427,1.347-0.792c0.047-0.025,0.19-0.087,0.391-0.172    c1.486-0.639,6.012-2.578,9.239-5.84c0.049-0.051,0.049-0.133-0.002-0.182c-0.05-0.051-0.131-0.05-0.183,0    c-3.19,3.227-7.681,5.151-9.156,5.785c-0.221,0.094-0.354,0.15-0.413,0.183c-0.677,0.369-1.034,0.579-1.367,0.804    c-0.567,0.384-1.221,0.955-1.248,0.98c-0.007,0.006-0.011,0.014-0.017,0.021c-0.227,0.053-0.461,0.107-0.706,0.169    c-0.073,0.003-0.166-0.009-0.271-0.021c-0.418-0.045-1.052-0.115-2.239,0.323c-2,1.022-3.504,5.123-3.567,5.298    c-0.007,0.018-0.01,0.039-0.006,0.061l0.122,0.869c0.01,0.064,0.063,0.109,0.127,0.109c0.006,0,0.013,0,0.019-0.002    c0.07-0.008,0.118-0.074,0.11-0.145l-0.118-0.836c0.14-0.375,1.604-4.193,3.417-5.12c1.116-0.41,1.714-0.346,2.108-0.302    c0.121,0.014,0.226,0.024,0.322,0.021c0.008,0,0.017-0.002,0.025-0.004c3.413-0.85,5.044-0.807,5.919-0.783    c0.306,0.009,0.508,0.014,0.662-0.025c0.544-0.136,3.523-2.551,3.949-2.898c0.552,0.68,2.111,2.599,2.602,3.202    c-0.535,0.424-6.357,4.984-8.143,4.753c-1.454-0.188-4.05-1.227-5.296-1.726c-0.607-0.243-0.677-0.269-0.734-0.269h-0.001    c-1.453,0.074-2.331,1.491-2.803,2.25c-0.113,0.186-0.212,0.344-0.272,0.418c-0.313,0.285-0.679,0.709-1.089,1.26    c-0.019,0.023-0.028,0.039-0.024,0.035c-0.01,0.008-0.024,0.021-0.343,0.461c-0.041,0.059-0.028,0.139,0.029,0.18    c0.023,0.018,0.049,0.025,0.075,0.025c0.039,0,0.079-0.02,0.105-0.053c0.139-0.193,0.298-0.41,0.31-0.426    c0.003-0.004,0.022-0.025,0.054-0.068c0.4-0.537,0.756-0.949,1.067-1.236c0.085-0.102,0.184-0.26,0.307-0.459    c0.477-0.77,1.271-2.052,2.582-2.129c0.066,0.02,0.334,0.127,0.642,0.25c0.328,0.131,0.75,0.3,1.219,0.48    c-0.738,0.512-1.521,1.18-2.022,2.223l-0.001,0.002c-0.007,0.016-0.011,0.029-0.012,0.047l-0.001,0.002    c0,0.014,0.002,0.027,0.006,0.039c0.001,0.004,0.001,0.008,0.002,0.012c0.001,0.002,0.001,0.004,0.002,0.008    c0.006,0.012,0.561,1.314-0.18,2.518l-0.816,1.467c-0.474,0.371-1.234,0.963-1.317,1.008c-0.006,0.002-0.011,0.006-0.017,0.01    c-0.274-0.084-0.295-0.207-0.287-0.338c0.006-0.104,0.353-0.469,0.743-0.779c0.011-0.01,0.02-0.02,0.028-0.031l0.773-1.205    c0.017-0.025,0.023-0.053,0.021-0.084c-0.112-1.047-0.19-1.092-0.244-1.127c-0.04-0.023-0.116-0.068-1.059,0.082    c-0.07,0.012-0.118,0.078-0.106,0.148c0.011,0.07,0.075,0.117,0.147,0.107c0.331-0.053,0.722-0.105,0.865-0.107    c0.04,0.141,0.097,0.533,0.135,0.879l-0.486,0.76l-0.209-0.193c-0.504-0.463-0.868-0.797-1.538-1.201    c-0.384-0.23-1.153-0.578-1.308-0.604c-0.065-0.012-0.127,0.029-0.146,0.092l-0.181,0.643c-0.002,0.008-0.001,0.014-0.002,0.018    c-0.001,0.006-0.001,0.01-0.001,0.014c-0.001,0.008-0.001,0.016,0,0.023c0.003,0.039,0.02,0.074,0.055,0.098    c1.036,0.691,1.853,1.398,2.429,2.102c0.004,0.002,0.008,0.004,0.01,0.008c-0.104,0.125-0.178,0.248-0.184,0.346    c-0.018,0.326,0.156,0.523,0.547,0.621c0.011,0.002,0.021,0.004,0.032,0.004c0.044,0,0.085-0.023,0.108-0.063    c0.019-0.012,0.045-0.027,0.073-0.049c0.572,1.076,0.518,2.107-0.164,3.068c-0.247-0.322-0.833-0.75-1.463-0.803    c0.031-0.102,0.037-0.211,0.008-0.32c-0.083-0.305-0.414-0.484-0.742-0.396c-0.327,0.088-0.527,0.408-0.446,0.715    c0.029,0.105,0.092,0.195,0.174,0.268c-0.479,0.32-0.785,0.885-0.895,1.291c-0.236,0.162-0.415,0.316-0.58,0.504l-1.586-0.135    l-0.427-0.455c-0.036-0.035-0.091-0.049-0.14-0.029L14.5,51.49c-0.061,0.023-0.095,0.088-0.08,0.15l0.195,0.842    c0.009,0.037,0.034,0.068,0.068,0.086l1.924,0.932c0.236,0.734,1.164,1.17,2.316,1.17c0.187,0,0.379-0.014,0.575-0.035    c-0.004,0.012-0.01,0.023-0.014,0.035c-0.504,0.279-0.768,0.637-0.686,0.949c0.084,0.309,0.475,0.48,1.007,0.48    c0.249,0,0.528-0.037,0.821-0.115c0.414-0.111,0.787-0.291,1.048-0.504c0.289-0.236,0.413-0.496,0.352-0.727    c-0.083-0.307-0.468-0.48-1.033-0.479c-0.01-0.01-0.023-0.018-0.034-0.027c1.003-0.424,1.738-1.105,1.93-1.818    c0.005-0.008,0.01-0.016,0.013-0.023c0.877-2.449,0.054-4.58-0.517-5.631c-0.01-0.018-0.024-0.031-0.04-0.043    c0.042-0.033,0.086-0.066,0.127-0.1l0.021-0.018l0.838-1.506c0.728-1.184,0.325-2.414,0.217-2.691    c0.414-0.836,1.016-1.473,2.06-2.176c0.673,0.254,1.419,0.522,2.123,0.739c0.005,0.008,0.008,0.016,0.014,0.023    c0.6,0.699,0.774,1.1,0.774,2.404c0,0.072,0.057,0.129,0.128,0.129c0.072,0,0.13-0.057,0.13-0.129    c0-1.145-0.123-1.652-0.616-2.301c0.477,0.133,0.921,0.236,1.295,0.283c0.234,0.031,0.528-0.012,0.864-0.109l0.009,0.002    c0.947,0.084,2.023,0.699,2.191,0.799c0.111,0.164,0.858,1.369,0.701,3.703c-0.006,0.072,0.049,0.133,0.119,0.139    c0.003,0,0.007,0,0.01,0c0.066,0,0.123-0.053,0.127-0.121c0.132-1.941-0.338-3.127-0.599-3.623    c0.997,0.143,2.002,0.967,2.239,1.17c-0.112,0.275-0.238,0.928-0.479,2.295c-0.133,0.764-0.272,1.551-0.347,1.729    c-0.003,0.008-0.005,0.014-0.006,0.02c-0.188,0.74-0.471,1.414-0.605,1.445c-0.055,0-0.095-0.018-0.131-0.057    c-0.139-0.152-0.149-0.576-0.122-0.807c0.007-0.072-0.043-0.137-0.114-0.145s-0.134,0.045-0.143,0.115    c-0.008,0.072-0.073,0.723,0.188,1.01c0.086,0.094,0.199,0.141,0.327,0.139c0.378-0.008,0.692-1.021,0.847-1.631    c0.086-0.217,0.215-0.938,0.361-1.773c0.149-0.855,0.377-2.15,0.482-2.291c0.035-0.033,0.078-0.045,0.137-0.037    c0.219,0.031,0.508,0.32,0.584,0.418c0.012,0.512-0.436,7.379-0.508,8.061c-0.054,0.502-0.875,3.279-0.884,3.307    c-0.02,0.068,0.019,0.141,0.087,0.16c0.013,0.004,0.025,0.006,0.037,0.006c0.055,0,0.105-0.035,0.123-0.092    c0.035-0.115,0.836-2.828,0.893-3.354c0.008-0.068,0.472-6.482,0.495-7.92c1.362-0.01,1.825,0.313,2.049,0.469    c0.109,0.076,0.203,0.141,0.309,0.113c0.915-0.109,1.504,0.186,1.618,0.248c-0.688,0.994-1.932,4.051-1.914,5.387    c0.001,0.07,0.059,0.127,0.13,0.127h0.001c0.072-0.002,0.128-0.059,0.127-0.131c-0.022-1.617,1.721-5.297,2.053-5.459    c0.229-0.111,1.555,0.254,2.085,0.768c0.005,0.006,0.011,0.008,0.016,0.01c-0.17,1.158-0.382,2.834-0.456,5.469    c-0.165-0.057-0.264-0.086-0.27-0.088c-0.025-0.008-0.055-0.006-0.08,0.002c-0.068,0.023-0.663,0.248-0.715,0.648    c-0.003,0.025-0.063,0.045-0.155,0.074c-0.28,0.086-0.749,0.23-0.725,1.242c0,0.002,0,0.002,0,0.002c0,0.002,0,0.002,0,0.002    c0,0.006,0.002,0.01,0.003,0.014c-1.557,1.055-1.593,1.1-2.113,1.754l-0.019,0.023c-0.182-0.021-0.32-0.01-0.402,0.033    c-0.498,0.262-2.244,1.758-2.539,2.01c-0.02-0.01-0.039-0.02-0.056-0.029c-0.033-0.016-0.068-0.018-0.104-0.006    c-0.838,0.309-1.243,0.783-1.6,1.201c-0.146,0.17-0.283,0.33-0.441,0.473c-2.234,0.645-2.518,1.637-2.552,1.932    c-0.762,0.262-1.142,0.799-1.24,0.957c-0.28,0.01-0.575,0.199-0.863,0.477c-0.139-0.527-1.134-2.35-2.15-4.188    c-0.223-0.4-0.404-0.727-0.506-0.916c-0.391-0.736-0.588-2.064-0.798-3.469c-0.24-1.617-0.489-3.291-1.063-4.52    c-0.031-0.063-0.107-0.092-0.171-0.061c-0.063,0.029-0.093,0.105-0.062,0.17c0.558,1.193,0.804,2.848,1.043,4.447    c0.211,1.428,0.411,2.775,0.824,3.551c0.102,0.189,0.284,0.52,0.508,0.924c0.723,1.307,2.069,3.738,2.137,4.164    c0.005,0.037,0.028,0.066,0.058,0.086c-0.735,0.814-1.372,2.111-1.476,2.328c-0.031,0.07-0.742,1.734-0.742,2.4    c0,0.719,0.506,2.324,1.433,2.742c0.065,0.084,0.127,0.168,0.188,0.252c0.359,0.49,0.729,0.994,1.706,1.252    c1.091,0.289,4.643-0.047,4.972-0.078c0.008,0.002,0.017,0.006,0.025,0.006c0.003,0,0.006,0,0.009-0.002    c0.008,0,0.017,0,0.023-0.002l8.048,0.561c0.146,0.039,1.364,0.35,2.214,0.35c0.16,0,0.308-0.012,0.433-0.037    c0.791-0.166,3.736-1.283,3.862-1.332c0.034-0.014,0.062-0.041,0.074-0.076c0.014-0.033,0.011-0.072-0.008-0.105    c-0.003-0.006-0.366-0.678-0.579-1.033c-0.208-0.35,0.307-1.355,0.806-2.326c0.024-0.047,0.048-0.096,0.073-0.143l0.185,0.023    c0.339,0.055,0.933,0.193,1.09,0.334c0.156,0.139,0.84,1.533,1.263,2.441c-0.578,0.469-1.214,1.057-1.151,1.322    c0.074,0.314,0.671,0.529,1.396,0.529c0.107,0,0.218-0.004,0.329-0.014c0.838-0.074,1.659-0.801,1.792-0.924    c1.445-0.615,0.818-2.201,0.442-3.15c-0.125-0.313-0.231-0.586-0.241-0.74c-0.011-0.176,0.016-0.33,0.06-0.563    c0.061-0.33,0.151-0.828,0.184-1.773c-0.063-0.713-0.335-1.203-0.813-1.453c-0.132-0.068-0.272-0.115-0.419-0.146    c1.626-0.975,1.32-1.75,1.154-2.176c-0.033-0.082-0.082-0.205-0.062-0.229c0.332-0.33,0.199-1.211,0.183-1.311    c-0.001-0.01-0.007-0.018-0.01-0.025c-0.001-0.002-0.001-0.002-0.001-0.004c-0.006-0.014-0.014-0.025-0.023-0.035    c0.931-1.67,1.203-4.416,0.804-8.166c-0.302-2.832-0.895-5.213-0.901-5.24c-0.531-1.92-2.909-9.682-3.598-11.918    c2.613,3.025,4.799,4.629,6.502,4.768c0.016,0.002,0.032,0.003,0.049,0.003c0.55,0,1.051-0.749,1.305-1.204    c0.424-0.757,0.755-1.744,0.889-2.641c0.11-0.74,0.14-1.762-0.347-2.422c-0.781-1.062-2.629-1.85-5.489-2.346    c5.313-1.477,8.455-4.882,9.599-10.404c0.01-0.049,0.019-0.091,0.025-0.127C63.593,18.857,63.613,18.756,63.552,18.597z     M18.377,44.496l0.124-0.436c0.243,0.094,0.793,0.346,1.109,0.537c0.647,0.391,1.003,0.717,1.495,1.17l0.242,0.221l-0.109,0.172    c-0.102,0.082-0.294,0.242-0.468,0.416C20.194,45.879,19.389,45.18,18.377,44.496z M18.833,50.283    c0.053-0.025,0.076-0.078,0.071-0.131c-0.001-0.055-0.033-0.104-0.085-0.121c-0.104-0.035-0.176-0.111-0.203-0.207    c-0.044-0.17,0.073-0.35,0.264-0.4c0.188-0.051,0.382,0.045,0.427,0.215c0.028,0.105,0.005,0.207-0.063,0.283    c-0.013,0.016-0.021,0.029-0.024,0.047c-0.007,0.018-0.012,0.035-0.01,0.053c0.004,0.072,0.074,0.129,0.135,0.123    c0.771-0.049,1.485,0.65,1.532,0.824c0.006,0.025-0.008,0.059-0.021,0.08c-0.119,0.207-0.631,0.52-1.38,0.721    c-0.975,0.262-1.579,0.141-1.615,0.006C17.81,51.588,18.137,50.627,18.833,50.283z M16.553,53.188l-1.701-0.824l-0.155-0.672    l0.229-0.088l0.401,0.426c0.022,0.023,0.051,0.037,0.083,0.041l1.467,0.125C16.649,52.523,16.539,52.863,16.553,53.188z     M20.974,55.018c0.049,0,0.095-0.029,0.116-0.076c0.063-0.133,0.076-0.273,0.043-0.404c0.351,0.021,0.603,0.125,0.646,0.283    c0.032,0.127-0.063,0.295-0.267,0.461c-0.232,0.189-0.57,0.352-0.951,0.453c-0.804,0.215-1.442,0.076-1.512-0.184    c-0.045-0.164,0.13-0.389,0.44-0.584c0.002,0.004,0.006,0.018,0.006,0.02c0.04,0.127,0.122,0.236,0.236,0.318    c0.023,0.016,0.05,0.023,0.074,0.023c0.042,0,0.08-0.02,0.105-0.053c0.042-0.059,0.028-0.139-0.03-0.182    c-0.068-0.049-0.116-0.113-0.144-0.197c-0.026-0.1-0.003-0.207,0.063-0.309c0.149-0.025,0.299-0.057,0.449-0.096    c0.146-0.041,0.287-0.086,0.426-0.135c0.106,0.055,0.181,0.135,0.206,0.232c0.021,0.078,0.013,0.162-0.025,0.244    c-0.029,0.064-0.002,0.141,0.063,0.17C20.937,55.014,20.955,55.018,20.974,55.018z M22.668,52.295    c-0.007,0.01-0.014,0.023-0.018,0.037c-0.189,0.787-1.203,1.572-2.467,1.91c-1.601,0.428-3.102,0.041-3.346-0.863    c-0.096-0.355,0.018-0.75,0.325-1.141c0.134-0.17,0.271-0.307,0.442-0.439c0.002,0.016,0.003,0.031,0.007,0.043    c0.064,0.238,0.391,0.338,0.819,0.338c0.333,0,0.729-0.059,1.111-0.162c0.755-0.201,1.357-0.531,1.536-0.838    c0.052-0.092,0.061-0.17,0.056-0.227c0.008-0.008,0.018-0.012,0.024-0.021c0.809-1.08,0.887-2.244,0.228-3.457    c0.206-0.156,0.487-0.373,0.768-0.594c0.003,0.006,0.003,0.012,0.006,0.018C22.707,47.908,23.496,49.949,22.668,52.295z     M47.245,24.318c0.429-2.871,1.226-8.212,6.967-10.908c0.999-0.14,3.217,0.917,3.398,1.301c0.051,0.141,0.054,1.358-0.05,1.937    c-5.138,1.832-7.19,6.137-8.375,8.624c-0.412,0.863-0.768,1.613-1.002,1.613c0,0-0.006,0-0.009-0.001l-0.344-0.255    c-0.009-0.007-0.335-0.289-0.958-0.667C47.039,25.687,47.124,25.13,47.245,24.318z M32.388,12.855    c0.183-0.721,1.69-1.049,2.45-1.142c-0.06,0.146-0.09,0.249-0.094,0.263c-0.021,0.068,0.02,0.14,0.088,0.16    c0.012,0.003,0.022,0.005,0.035,0.005c0.056,0,0.107-0.037,0.125-0.093c0.003-0.012,0.364-1.236,1.132-1.42    c0.399-0.096,0.854,0.113,1.351,0.614c-0.071,0.069-0.144,0.142-0.218,0.221c-0.049,0.053-0.046,0.134,0.007,0.183    c0.053,0.048,0.134,0.045,0.182-0.007c0.589-0.637,1.098-0.912,1.513-0.814c0.396,0.093,0.622,0.512,0.716,0.734    c-0.104,0.01-0.207,0.02-0.316,0.034c-0.07,0.009-0.119,0.073-0.111,0.144c0.01,0.071,0.073,0.12,0.145,0.111    c1.576-0.197,2.201,0.076,2.445,0.339c0.203,0.218,0.18,0.466,0.161,0.562c-0.013,0.07,0.031,0.138,0.101,0.152    c0.009,0.001,0.018,0.002,0.025,0.002c0.061,0,0.114-0.042,0.127-0.104c0.003-0.019,0.007-0.045,0.01-0.072    c0.017-0.002,0.401-0.062,0.81,0.043c0.112,0.029,0.27,0.204,0.367,0.529c0.166,0.558,0.115,1.474-0.564,2.232    c-0.168-0.028-0.383,0.005-0.655,0.105c-0.088-0.083-0.177-0.161-0.265-0.236c0.002-0.005,0.005-0.011,0.007-0.018l0.121-0.691    c0.016,0.001,0.031,0.002,0.047,0.002c0.053,0,0.104-0.004,0.144-0.01c0.131-0.016,0.357-0.063,0.417-0.194    c0.055-0.121,0.051-0.369,0.049-0.442c-0.003-0.069-0.06-0.124-0.129-0.124h-0.004c-0.07,0.002-0.127,0.062-0.124,0.133    c0.003,0.111-0.005,0.256-0.021,0.313c-0.087,0.058-0.413,0.096-0.485,0.031c-1.392-1.344-1.643-1.305-1.725-1.294    c-0.027,0.004-0.053,0.015-0.073,0.03c-0.017,0.01-0.028,0.024-0.039,0.042c-0.001,0.001-0.003,0.002-0.003,0.003    c-0.004,0.005-0.004,0.011-0.006,0.016c-0.004,0.009-0.007,0.017-0.009,0.026c-0.001,0.008-0.001,0.018-0.001,0.027    c0.001,0.006-0.001,0.011,0,0.017c0.029,0.157-0.031,0.202-0.054,0.219c-0.277,0.207-1.308-0.095-1.776-0.329    c-0.817-0.407-1.611-0.531-1.716-0.545c-0.011-0.212-0.063-0.371-0.066-0.384c-0.021-0.067-0.094-0.104-0.162-0.082    c-0.067,0.022-0.104,0.094-0.083,0.162c0.002,0.005,0.163,0.516-0.064,0.856c-0.123,0.185-0.346,0.292-0.661,0.319    c-0.354,0.028-0.542-0.117-0.766-0.287c-0.244-0.187-0.521-0.4-1.02-0.302c-0.069,0.013-0.114,0.081-0.102,0.15    c0.014,0.069,0.081,0.115,0.151,0.101c0.32-0.062,0.512,0.035,0.701,0.171c-0.598,0.111-1.097,0.526-1.121,0.547    c-0.005,0.004-0.008,0.01-0.012,0.015c-0.028,0.02-0.049,0.05-0.053,0.086l-0.048,0.394    C33.031,14.223,32.182,13.664,32.388,12.855z M41.831,14.618l-0.104,0.601c-2.09-1.607-4.223-1.083-4.96-0.9    c-0.096,0.023-0.194,0.047-0.22,0.048c-0.059-0.002-0.157-0.019-0.271-0.039c-0.324-0.057-0.815-0.144-1.222-0.011    c-0.021,0.006-0.024,0.008-0.093,0.055c-0.844,0.57-1.299,0.765-1.539,0.824l0.141-1.149c0.104-0.083,0.678-0.517,1.253-0.498    c0.166,0.108,0.361,0.197,0.631,0.197c0.035,0,0.07-0.001,0.107-0.005c0.398-0.033,0.688-0.179,0.856-0.434    c0.09-0.137,0.135-0.289,0.153-0.436c0.171,0.028,0.89,0.16,1.606,0.517c0.185,0.092,0.993,0.424,1.581,0.424    c0.187,0,0.352-0.034,0.466-0.12c0.07-0.053,0.146-0.144,0.161-0.291c0.161,0.083,0.545,0.345,1.403,1.173    C41.796,14.593,41.814,14.604,41.831,14.618z M35.068,32.822c0.072-0.57,0.555-0.7,0.722-0.728    c0.26,0.312,2.502,3.012,2.977,3.583c-0.176,0.603-0.672,0.667-0.834,0.671C37.582,35.914,35.375,33.199,35.068,32.822z     M40.597,44.471c-0.035,0.018-0.077,0.053-0.122,0.104l-0.001-0.002c-0.028-0.018-0.695-0.434-1.82-0.295    c-0.019-0.002-0.073-0.043-0.118-0.072c-0.244-0.172-0.763-0.527-2.2-0.516c-0.001-0.012-0.003-0.021-0.005-0.025    c-0.05-0.082-0.426-0.506-0.779-0.557c-0.1-0.014-0.191,0.002-0.27,0.045c-0.278-0.242-1.421-1.182-2.559-1.248    c-0.004,0-0.008,0.002-0.013,0.002c-0.01-0.012-0.021-0.023-0.033-0.031c-0.042-0.025-0.92-0.559-1.853-0.771    c1.957-0.779,4.86-2.903,6.237-3.952c-0.072,0.428-0.18,1.097-0.168,1.24c0.039,0.434,0.446,1.071,3.518,1.594    c0.798,0.183,2.556,3.163,2.624,3.53c0.017,0.367-0.052,0.816-0.153,1.494c-0.009,0.057-0.018,0.113-0.026,0.172    C42.253,44.705,40.971,44.287,40.597,44.471z M53.78,62.873c0.394,0.209,0.622,0.629,0.676,1.234    c-0.032,0.91-0.118,1.377-0.181,1.719c-0.043,0.242-0.076,0.418-0.063,0.627c0.014,0.195,0.121,0.469,0.259,0.818    c0.387,0.977,0.915,2.314-0.322,2.826c-0.015,0.008-0.028,0.016-0.04,0.025c-0.009,0.008-0.847,0.799-1.655,0.869    c-0.837,0.074-1.417-0.162-1.451-0.307c0.016-0.146,0.602-0.705,1.139-1.135c0.047-0.039,0.061-0.102,0.036-0.156    c-0.185-0.398-1.117-2.396-1.367-2.617c-0.265-0.232-1.122-0.379-1.224-0.396l-0.098-0.012c0.491-0.969,0.973-1.998,1.023-2.848    l0.084-0.061c0.018-0.01,1.36-0.762,2.458-0.748h0.001h0.005C53.322,62.715,53.569,62.762,53.78,62.873z M54.396,60.42    c0.164,0.416,0.41,1.043-1.197,1.947l-0.172,0.088c-1.053,0-2.244,0.611-2.515,0.76c-0.007-0.074-0.016-0.146-0.03-0.217    c-0.001-0.002-0.002-0.004-0.003-0.006c-0.002-0.01-0.007-0.018-0.012-0.025c-0.002-0.008-0.005-0.014-0.009-0.02    s-0.011-0.012-0.018-0.018s-0.013-0.012-0.021-0.016c-0.002-0.002-0.003-0.004-0.005-0.004c-0.336-0.176-0.905-0.166-1.45,0.025    c-0.081,0.029-0.243,0.119-0.501,0.27c-0.182,0.104-0.408,0.234-0.477,0.258c-0.219,0.076-0.64,0.08-1.01,0.086    c-0.182,0.002-0.354,0.004-0.496,0.014c-0.033,0.004-0.585,0.061-1.031,0.123l-0.157-0.041c-2.064-0.611-3.514-1.164-4.783-3.193    c-0.035-0.063-0.115-0.078-0.177-0.043c-0.061,0.039-0.078,0.119-0.04,0.178c1.241,1.988,2.702,2.625,4.597,3.205    c-0.639,0.145-3.981,0.814-4.563,0.932c-0.79-1.156-0.735-2.586-0.735-2.602c0.003-0.07-0.052-0.131-0.122-0.135    c-0.073-0.002-0.132,0.051-0.136,0.121c-0.002,0.063-0.057,1.459,0.719,2.668c-0.211,0.035-0.616,0.096-1.278,0.162    c-2.078,0.207-5.067,1.336-5.558,1.611c-0.014,0.008-0.023,0.018-0.032,0.027c-0.19,0.113-0.736,0.438-1.234,0.75    c-0.34,0.217-0.893,0.178-1.021,0.033c-0.014-0.016-0.045-0.053,0.038-0.15c0.044-0.057,0.037-0.137-0.018-0.182    c-0.054-0.047-0.135-0.039-0.182,0.018c-0.2,0.242-0.089,0.418-0.031,0.482c0.119,0.139,0.363,0.207,0.629,0.207    c0.253,0,0.522-0.063,0.724-0.191c0.606-0.381,1.288-0.781,1.295-0.785s0.012-0.01,0.017-0.016    c0.613-0.307,3.461-1.355,5.399-1.549c1.083-0.107,1.48-0.199,1.493-0.203c0.098-0.02,1.394-0.277,2.609-0.525    c0.008,0.006,0.015,0.012,0.023,0.016c0,0,0.094,0.041,0.114,0.172c0.034,0.223-0.108,0.91-2.155,2.531    c0,0-0.194,0.143-0.514,0.369c-0.058,0.041-0.072,0.123-0.031,0.18c0.025,0.035,0.065,0.055,0.105,0.055    c0.026,0,0.051-0.008,0.074-0.023c0.322-0.229,0.519-0.373,0.522-0.375c1.585-1.256,2.343-2.188,2.254-2.773    c-0.014-0.086-0.046-0.156-0.083-0.213c0.893-0.182,1.682-0.344,1.828-0.383c0.313-0.084,1.455-0.199,1.463-0.199    c0.131-0.01,0.299-0.012,0.477-0.014c0.229-0.004,0.475-0.008,0.691-0.027c0.016,0.012,0.059,0.053,0.071,0.15    c0.03,0.242-0.12,0.846-1.472,2.164c-0.052,0.049-0.052,0.131-0.002,0.182c0.024,0.025,0.058,0.039,0.091,0.039    c0.032,0,0.065-0.012,0.09-0.037c1.109-1.082,1.63-1.891,1.545-2.402c-0.009-0.053-0.024-0.098-0.041-0.137    c0.042-0.01,0.082-0.02,0.117-0.033c0.086-0.027,0.255-0.123,0.521-0.277c0.176-0.102,0.393-0.227,0.457-0.248    c0.507-0.178,0.945-0.162,1.188-0.066c0.15,0.938-0.552,2.309-1.176,3.525c-0.604,1.174-1.079,2.104-0.796,2.576    c0.153,0.258,0.387,0.68,0.503,0.895c-0.604,0.227-3.01,1.127-3.686,1.268c-0.751,0.154-2.522-0.309-2.54-0.313    c-0.009-0.002-0.017-0.004-0.024-0.004l-7.09-0.494c0.858-0.246,1.846-0.709,2.768-1.314c0.059-0.039,0.075-0.117,0.036-0.178    c-0.038-0.059-0.117-0.076-0.178-0.037c-1.263,0.828-2.644,1.385-3.615,1.461l-0.038-0.002c-0.006,0-0.014,0-0.021,0    c-0.037,0.004-3.826,0.371-4.902,0.088c-0.89-0.234-1.201-0.662-1.563-1.156c-0.069-0.094-0.14-0.189-0.215-0.283    c-0.014-0.018-0.03-0.031-0.052-0.041c-0.797-0.332-1.305-1.84-1.305-2.518c0-0.613,0.713-2.281,0.718-2.293    c0.402-0.842,1.612-2.99,2.381-2.84c1.002,0.195,1.333,0.779,1.726,1.65c0.029,0.064,0.105,0.094,0.17,0.064    s0.095-0.105,0.064-0.17c-0.395-0.875-0.758-1.52-1.771-1.766c0.158-0.215,0.555-0.65,1.254-0.816    c0.258-0.023,0.838-0.016,1.439,0.428c0.145,0.104,0.3,0.193,0.464,0.287c0.693,0.396,1.479,0.846,1.946,2.873    c0.014,0.063,0.066,0.102,0.125,0.102c0.01,0,0.02-0.002,0.029-0.004c0.069-0.016,0.112-0.086,0.098-0.154    c-0.493-2.139-1.367-2.639-2.071-3.039c-0.157-0.09-0.307-0.176-0.438-0.273c-0.661-0.486-1.292-0.504-1.602-0.477    c0,0-0.006,0-0.009,0c0.093-0.32,0.508-1.084,2.371-1.617c0.019-0.004,0.035-0.014,0.05-0.025c0.182-0.16,0.33-0.334,0.488-0.52    c0.345-0.402,0.701-0.82,1.442-1.105c0.672,0.342,1.422,0.795,1.492,0.953c0.122,0.273,0.152,0.516,0.147,0.584    c-0.005,0.072,0.048,0.133,0.119,0.139c0.071,0.004,0.133-0.049,0.138-0.121c0.007-0.113-0.03-0.396-0.169-0.707    c-0.114-0.256-0.875-0.689-1.359-0.947c0.438-0.373,1.977-1.678,2.411-1.908c0.361-0.189,2.523,0.568,4.482,2.99    c0.025,0.031,0.063,0.049,0.1,0.049c0.029,0,0.058-0.01,0.081-0.029c0.056-0.045,0.064-0.125,0.02-0.182    c-1.529-1.891-3.175-2.797-4.114-3.035c0.44-0.553,0.537-0.635,2.022-1.641c0.03-0.021,0.049-0.051,0.055-0.084    c0.368,0.002,1.762,0.074,3.636,0.93c0.018,0.01,0.037,0.014,0.055,0.014c0.049,0,0.094-0.029,0.116-0.076    c0.03-0.064,0.001-0.141-0.063-0.17c-1.9-0.869-3.296-0.953-3.72-0.955c0.015-0.701,0.306-0.791,0.543-0.863    c0.141-0.043,0.313-0.096,0.336-0.287c0.024-0.189,0.35-0.359,0.507-0.424c0.479,0.15,4.929,1.576,7.301,3.648    c0.346,0.254,1.269,1.309,2.477,2.83c0.979,1.014,2.292,1.33,2.688,1.35c0.038,0.332,0.033,0.807-0.127,0.967    C54.252,60.057,54.324,60.24,54.396,60.42z M63.308,18.97c-0.008,0.039-0.018,0.082-0.026,0.131    c-1.143,5.516-4.316,8.879-9.708,10.287l-0.227,0.07c-1.988-0.301-3.693-0.348-3.712-0.349h-0.003    c-0.069,0-0.127,0.055-0.129,0.125c-0.002,0.071,0.055,0.13,0.125,0.132c0.078,0.002,7.783,0.232,9.59,2.686    c0.719,0.976,0.29,3.262-0.559,4.785c-0.389,0.695-0.805,1.096-1.109,1.07c-1.719-0.141-3.981-1.876-6.727-5.15    c-0.005-0.008-0.01-0.013-0.016-0.019c-0.041-0.05-0.082-0.096-0.123-0.146c-0.109-0.132-0.185-0.222-0.221-0.26    c-0.049-0.052-0.13-0.055-0.182-0.006c-0.053,0.048-0.055,0.13-0.006,0.181c0.033,0.037,0.105,0.124,0.21,0.25    c0.041,0.049,0.079,0.092,0.12,0.141c0.184,0.604,3.169,10.307,3.771,12.483c0.006,0.023,0.593,2.387,0.893,5.199    c0.395,3.709,0.112,6.51-0.816,8.1c-0.001,0.002-0.001,0.004-0.002,0.006c-0.401-0.051-1.564-0.365-2.426-1.256    c-0.583-0.736-1.994-2.486-2.511-2.861c-1.577-1.379-4.058-2.475-5.714-3.107c0.319-0.277,1.03-0.959,1.194-1.117    c0.012-0.012,0.021-0.023,0.028-0.039c0.03-0.068,0.3-0.668,0.307-0.992c0.001-0.072-0.055-0.131-0.125-0.133    c-0.064,0.004-0.131,0.055-0.134,0.127c-0.004,0.221-0.188,0.682-0.271,0.869c-0.558,0.535-1.188,1.125-1.272,1.178    c-0.001,0.002-0.001,0.002-0.001,0.002c-0.364-0.135-0.676-0.242-0.915-0.324c0.081-3.045,0.349-4.813,0.524-5.982    c0.105-0.693,0.174-1.152,0.155-1.563c-0.07-0.379-1.876-3.536-2.828-3.752c-1.479-0.252-3.254-0.693-3.313-1.364    c-0.01-0.113,0.115-0.898,0.212-1.449c0.217-0.167,0.368-0.286,0.437-0.342c0.002,0.001,0.004,0.003,0.007,0.005    s0.005,0.005,0.008,0.006c0.012,0.008,0.024,0.01,0.037,0.012c0.004,0.001,0.008,0.003,0.008,0.003l0.007,0.001    c0.003,0,0.005,0.001,0.005,0.001s0.006-0.001,0.008-0.001c0,0,0.013,0,0.021,0c0.175,0,0.926-0.053,1.133-0.928    c0.001-0.004,0-0.006,0.001-0.01c0.001-0.008,0.001-0.018,0.001-0.025c0-0.009-0.001-0.016-0.003-0.024    c-0.001-0.008-0.004-0.015-0.007-0.021c-0.004-0.009-0.008-0.017-0.013-0.024c-0.002-0.002-0.003-0.005-0.005-0.008    c-0.004-0.005-0.011-0.013-0.017-0.02c0.279-0.152,0.577-0.367,0.882-0.613c0.13,0.539,0.186,1.471,0.227,2.164    c0.027,0.469,0.045,0.739,0.072,0.848c0.098,0.383,0.542,0.904,3.237,1.029h0.007c0.068,0,0.125-0.054,0.128-0.123    c0.004-0.07-0.052-0.131-0.122-0.135c-1.871-0.086-2.88-0.367-3.001-0.836c-0.021-0.089-0.043-0.434-0.064-0.797    c-0.044-0.755-0.105-1.786-0.265-2.328c0.212-0.178,0.423-0.362,0.634-0.547c0.675-0.59,1.375-1.198,1.697-1.174    c0.608,0.051,1.645,1.646,1.708,1.836c0.022,0.066,0.096,0.104,0.162,0.082c0.067-0.023,0.104-0.096,0.082-0.163    c-0.055-0.167-1.13-1.944-1.931-2.011c-0.435-0.033-1.107,0.555-1.887,1.236c-0.596,0.52-1.211,1.058-1.733,1.33    c-0.598-0.719-2.193-2.641-2.701-3.253c0.541-0.731,4.653-6.175,6.742-6.041c0.07,0.003,0.132-0.05,0.137-0.12    s-0.05-0.133-0.12-0.137c-0.03-0.002-0.06-0.004-0.09-0.004c-1.182,0-2.847,1.463-4.25,2.973c-0.15-0.664-0.879-1.961-1.157-2.436    c0.604-0.117,1.227-0.477,1.856-1.086c0.052-0.049,0.053-0.13,0.004-0.182c-0.05-0.051-0.132-0.053-0.183-0.002    c-0.902,0.869-1.768,1.205-2.574,0.996c-1.88-0.486-2.895-3.737-2.904-3.77c-0.016-0.049-0.057-0.084-0.106-0.09l-0.401-0.053    c-0.305-0.569-0.967-1.958-0.821-2.422c0.019-0.061,0.048-0.081,0.068-0.092c0.069-0.035,0.138-0.037,0.213-0.007    c0.341,0.133,0.666,0.831,0.764,1.089c0.019,0.051,0.076,0.082,0.123,0.084c0.055-0.002,0.103-0.037,0.12-0.09l0.182-0.565    c0.021-0.067-0.015-0.14-0.082-0.162c-0.068-0.021-0.141,0.015-0.162,0.083L33.401,20.3c-0.157-0.323-0.433-0.787-0.771-0.92    c-0.018-0.007-0.035-0.01-0.052-0.016l0.074-0.596c0.147,0.121,0.313,0.249,0.512,0.385c0.022,0.016,0.047,0.022,0.072,0.022    c0.041,0,0.081-0.021,0.106-0.056c0.04-0.059,0.025-0.139-0.033-0.18c-0.213-0.146-0.444-0.328-0.651-0.52    c-0.002-0.001-0.004-0.002-0.005-0.004c-0.399-0.367-0.705-0.762-0.592-0.976c0.009,0,0.019,0.001,0.019,0.001    c0.222,0,0.413-0.061,0.577-0.145c0.007,0,0.013,0.001,0.019-0.001c0.12,0.003,0.512,0.425,0.746,0.677    c0.382,0.412,0.629,0.667,0.82,0.723c0.035,0.01,0.072,0.014,0.115,0.014c0.271,0,0.675-0.188,0.792-0.329    c0.044-0.055,0.036-0.136-0.019-0.181c-0.054-0.045-0.135-0.037-0.182,0.018c-0.08,0.098-0.492,0.272-0.636,0.23    c-0.137-0.039-0.45-0.378-0.703-0.65c-0.294-0.316-0.514-0.547-0.692-0.666c0.226-0.174,0.357-0.36,0.368-0.375    c0.041-0.058,0.027-0.138-0.031-0.179c-0.06-0.041-0.139-0.026-0.18,0.031c-0.003,0.006-0.423,0.595-1.012,0.576    c-0.191-0.006-0.24-0.096-0.256-0.126c-0.113-0.209,0.017-0.669,0.203-0.975c0.223-0.369,0.716-0.699,1.155-0.617    c0.333,0.063,0.967-0.226,1.939-0.883c0.019-0.012,0.033-0.022,0.042-0.028c0.278-0.086,0.612-0.052,0.896-0.007    c-0.316,0.345-0.891,1.039-0.753,1.376c0.133,0.267,0.499,0.324,0.852,0.379c0.255,0.04,0.518,0.082,0.656,0.193    c0.023,0.019,0.053,0.028,0.081,0.028c0.037,0,0.074-0.016,0.1-0.047c0.045-0.055,0.037-0.136-0.019-0.181    c-0.191-0.155-0.489-0.202-0.778-0.248c-0.289-0.045-0.587-0.092-0.657-0.231c-0.055-0.136,0.329-0.704,0.823-1.219    c0.072,0.012,0.14,0.022,0.189,0.024c0.057-0.001,0.129-0.016,0.29-0.056c0.753-0.185,3.015-0.743,5.125,1.177    c-0.182,0.083-0.382,0.188-0.603,0.317c-1.904,1.09-2.639,1.141-2.668,1.143c-0.071,0.004-0.133,0.067-0.124,0.133    c0.01,0.064,0.04,0.136,0.137,0.124c0.097-0.011,0.859-0.075,2.783-1.177c1.04-0.606,1.354-0.532,1.44-0.473    c0.084,0.059,0.08,0.2,0.062,0.309c-0.08,0.47-0.529,1.099-0.723,1.152c-0.067,0.02-0.107,0.091-0.089,0.158    c0.016,0.059,0.068,0.096,0.125,0.096c0.01,0,0.022-0.002,0.034-0.005c0.094-0.026,0.203-0.11,0.313-0.229    c0.062,0.134,0.122,0.341,0.03,0.524c-0.104,0.212-0.448,0.468-1.493,0.496c-0.07,0.002-0.128,0.062-0.126,0.132    s0.061,0.125,0.13,0.125h0.003c0.516-0.013,0.919-0.086,1.214-0.213c0.002,0.416-0.38,0.904-0.434,0.973h-0.001l-0.652,0.445    l-0.135-0.873c-0.012-0.07-0.079-0.12-0.146-0.108c-0.07,0.011-0.12,0.077-0.108,0.147l0.167,1.076    c0.007,0.043,0.034,0.08,0.076,0.098c0.039,0.018,0.088,0.014,0.123-0.012l0.648-0.443c0.058,0.531,0.125,1.956-0.744,2.396    c-0.035,0.018-0.058,0.048-0.067,0.081c-0.003,0.009-0.008,0.016-0.01,0.025c-0.014,0.05-0.315,1.239,0.103,1.879    c0.142,0.215,0.347,0.346,0.608,0.387c3.768,0.611,5.813,2.377,5.842,2.402l0.376,0.28c0.012,0.009,0.027,0.017,0.044,0.021    c0.439,0.117,0.756-0.544,1.329-1.747c1.372-2.884,3.928-8.247,11.2-9.196c0.901,0.105,2.11,0.996,2.694,2.504    C63.345,18.777,63.34,18.81,63.308,18.97z"/>
		<path d="M34.336,20.444c0.035-0.024,0.878-0.603,1.535,0.126c0.024,0.027,0.061,0.042,0.096,0.042    c0.031,0,0.062-0.011,0.086-0.032c0.053-0.049,0.057-0.13,0.01-0.182c-0.813-0.9-1.865-0.172-1.875-0.164    c-0.059,0.041-0.072,0.121-0.032,0.18C34.197,20.471,34.277,20.484,34.336,20.444z"/>
		<path d="M38.055,20.228c-0.06,0.041-0.072,0.121-0.031,0.18c0.041,0.058,0.121,0.071,0.18,0.03    c0.038-0.027,0.953-0.659,1.56,0.128c0.025,0.033,0.063,0.051,0.103,0.051c0.027,0,0.054-0.01,0.078-0.027    c0.056-0.043,0.066-0.124,0.023-0.181C39.359,19.623,38.451,19.947,38.055,20.228z"/>
		<path d="M41.034,17.388c0.001-0.07-0.06-0.129-0.129-0.133c-0.476-0.025-1.291,0.402-1.896,0.766    c-0.411,0.249-0.76,0.307-1.03,0.17c-0.576-0.289-0.688-1.337-0.688-1.347c-0.007-0.071-0.073-0.123-0.14-0.116    c-0.07,0.007-0.123,0.07-0.116,0.141c0.006,0.049,0.126,1.199,0.827,1.551c0.133,0.067,0.277,0.101,0.433,0.101    c0.255,0,0.54-0.093,0.848-0.278c1.135-0.684,1.599-0.739,1.747-0.729c0.003,0,0.019,0,0.019,0h0.003    C40.98,17.513,41.032,17.458,41.034,17.388z"/>
		<path d="M35.785,17.853c0.305-0.053,0.569-0.279,0.789-0.672c0.035-0.063,0.013-0.141-0.049-0.175    c-0.063-0.035-0.141-0.013-0.176,0.049c-0.179,0.321-0.383,0.503-0.605,0.542c-0.271,0.048-0.492-0.136-0.494-0.136l-1.16-1.287    c-0.048-0.052-0.13-0.056-0.183-0.01c-0.052,0.048-0.056,0.129-0.009,0.183l1.173,1.297c0.01,0.01,0.25,0.217,0.581,0.217    C35.695,17.863,35.739,17.86,35.785,17.853z"/>
		<path d="M37.931,16.383c0.217,0.051,0.412,0.073,0.588,0.073c0.739,0,1.14-0.393,1.448-0.694c0.247-0.242,0.397-0.376,0.601-0.353    c0.069,0.008,0.135-0.042,0.144-0.112c0.009-0.071-0.043-0.135-0.113-0.143c-0.337-0.041-0.566,0.186-0.811,0.424    c-0.377,0.369-0.804,0.787-1.798,0.555c-0.35-0.082-0.333-0.482-0.332-0.5c0.004-0.071-0.052-0.131-0.122-0.136    c-0.065-0.006-0.132,0.05-0.136,0.121C37.387,15.837,37.481,16.278,37.931,16.383z"/>
		<path d="M36.221,22.734c-0.069-0.008-0.13,0.051-0.135,0.121c-0.003,0.066,0.043,0.122,0.104,0.134    c0.045,0.024,0.154,0.144,0.221,0.215c0.116,0.125,0.185,0.197,0.247,0.226c0.067,0.031,0.172,0.043,0.275,0.043    c0.114,0,0.229-0.015,0.285-0.033c0.067-0.021,0.127-0.083,0.235-0.199c0.088-0.094,0.219-0.234,0.297-0.258    c0.07-0.021,0.107-0.093,0.087-0.16c-0.019-0.068-0.091-0.107-0.16-0.087c-0.146,0.044-0.287,0.195-0.411,0.33    c-0.048,0.05-0.112,0.12-0.126,0.129c-0.077,0.024-0.313,0.03-0.371,0.004c-0.029-0.017-0.114-0.108-0.169-0.169    C36.429,22.843,36.326,22.739,36.221,22.734z"/>
		<path d="M37.963,20.898c-0.059,0.043-0.068,0.123-0.027,0.18c0.043,0.059,0.123,0.07,0.181,0.028    c0.012-0.009,0.127-0.093,0.309-0.159c-0.006,0.09,0.002,0.237,0.101,0.355c0.086,0.104,0.216,0.156,0.386,0.156    c0.01,0,0.019,0,0.027,0c0.071-0.002,0.127-0.062,0.125-0.133c-0.002-0.07-0.06-0.125-0.129-0.125c0,0-0.003,0-0.004,0    c-0.102,0.004-0.169-0.018-0.207-0.063c-0.054-0.064-0.045-0.179-0.036-0.217c0.002-0.015,0.002-0.029,0.001-0.044    c0.284-0.046,0.645-0.012,1.008,0.278c0.023,0.02,0.053,0.029,0.08,0.029c0.038,0,0.075-0.017,0.101-0.049    c0.044-0.055,0.036-0.137-0.02-0.181C38.923,20.207,37.973,20.892,37.963,20.898z"/>
		<path d="M35.239,21.197h-0.004c-0.102,0.004-0.169-0.018-0.208-0.062c-0.053-0.065-0.043-0.18-0.035-0.218    c0.005-0.02,0.003-0.039-0.001-0.057c0.253-0.01,0.55,0.057,0.847,0.295c0.023,0.02,0.052,0.029,0.08,0.029    c0.037,0,0.074-0.018,0.101-0.049c0.044-0.056,0.034-0.137-0.021-0.182c-0.934-0.748-1.884-0.063-1.894-0.057    c-0.058,0.043-0.069,0.123-0.028,0.18c0.043,0.058,0.124,0.07,0.181,0.028c0.017-0.012,0.202-0.144,0.478-0.21    c-0.012,0.076-0.022,0.26,0.096,0.402c0.086,0.104,0.215,0.157,0.387,0.157c0.009,0,0.018-0.001,0.026-0.001    c0.071-0.002,0.127-0.062,0.124-0.133C35.365,21.252,35.309,21.197,35.239,21.197z"/>
		<path d="M37.923,24.261c-0.057,0.01-0.129,0.004-0.148-0.01c-0.093-0.072-0.207-0.158-0.281-0.212    c-0.164-0.116-0.426-0.012-0.563,0.059c-0.113-0.054-0.33-0.14-0.484-0.087c-0.089,0.029-0.17,0.098-0.271,0.186l-0.083,0.07    c-0.025,0.018-0.124,0.016-0.202-0.004c-0.069-0.016-0.139,0.025-0.156,0.096c-0.016,0.068,0.026,0.138,0.095,0.154    c0.034,0.009,0.106,0.023,0.187,0.023c0.083,0,0.174-0.016,0.24-0.071c0.031-0.025,0.061-0.05,0.087-0.073    c0.073-0.064,0.144-0.123,0.185-0.138c0.057-0.019,0.227,0.038,0.343,0.103c0.039,0.021,0.088,0.021,0.127-0.002    c0.144-0.084,0.311-0.128,0.345-0.105c0.074,0.051,0.186,0.137,0.275,0.205c0.122,0.094,0.312,0.067,0.35,0.061    c0.069-0.012,0.116-0.078,0.104-0.147C38.061,24.297,37.996,24.25,37.923,24.261z"/>
		<path d="M37.595,24.869c-0.49,0.391-0.816,0.488-1.344-0.004c-0.052-0.049-0.133-0.047-0.183,0.006    c-0.049,0.052-0.046,0.133,0.007,0.182c0.305,0.286,0.572,0.404,0.826,0.404c0.288,0,0.561-0.152,0.854-0.387    c0.058-0.044,0.066-0.125,0.021-0.18C37.733,24.833,37.651,24.825,37.595,24.869z"/>
		<path d="M55.97,34.842c-0.113,0.169-0.287,0.51-0.194,0.882c0.073,0.288,0.289,0.531,0.649,0.723    c0.234,0.114,0.449,0.17,0.646,0.17c0.107,0,0.21-0.016,0.305-0.05c0.261-0.093,0.465-0.306,0.624-0.65    c0.159-0.347,0.09-1.022-0.57-1.372h-0.001C56.747,34.189,56.173,34.539,55.97,34.842z M56.849,34.652    c0.141,0,0.295,0.035,0.459,0.12c0.514,0.272,0.576,0.78,0.457,1.036c-0.129,0.279-0.285,0.447-0.476,0.517    c-0.204,0.071-0.456,0.035-0.747-0.106c-0.288-0.154-0.463-0.342-0.517-0.557c-0.069-0.276,0.07-0.542,0.159-0.676    C56.29,34.826,56.533,34.652,56.849,34.652z"/>
		<path d="M60.723,18.33c-0.236-0.006-0.675,0.032-1,0.35c-0.244,0.238-0.369,0.578-0.369,1.01c0,1.201,0.94,1.331,1.345,1.331    c0.854,0,1.286-0.45,1.286-1.339C61.984,18.794,61.57,18.352,60.723,18.33z M60.698,20.762c-0.496,0-1.086-0.187-1.086-1.073    c0-0.359,0.099-0.637,0.289-0.825c0.243-0.236,0.577-0.276,0.776-0.276c0.013,0,0.025,0,0.037,0    c0.501,0.014,1.012,0.153,1.012,1.094C61.727,20.65,61.141,20.762,60.698,20.762z"/>
	</g>
</g>
</svg>