<?xml version="1.0" encoding="UTF-8"?>
<!-- Generator: Adobe Illustrator 16.0.3, SVG Export Plug-In . SVG Version: 6.00 Build 0)  -->
<!DOCTYPE svg PUBLIC "-//W3C//DTD SVG 1.1//EN" "http://www.w3.org/Graphics/SVG/1.1/DTD/svg11.dtd">
<svg version="1.1" id="Ebene_1" xmlns="http://www.w3.org/2000/svg" xmlns:xlink="http://www.w3.org/1999/xlink" x="0px" y="0px" width="131.65px" height="42px" viewBox="0 0 131.65 42" enable-background="new 0 0 131.65 42" xml:space="preserve">
<g>
	<path fill="#010202" d="M89.46,29.118h-1.952V41.77h1.952V29.118z M80.082,36.52c0.033-0.247,0.066-0.494,0.148-0.74   c0.098-0.312,0.59-1.525,1.854-1.541c0.181,0,0.559,0.032,0.967,0.295c0.74,0.459,0.854,1.164,0.904,1.969L80.082,36.52z    M85.974,37.602c-0.017-0.329,0.032-1.51-0.46-2.527c-0.887-1.789-2.791-1.952-3.38-1.952c-0.542,0-2.052,0.131-3.118,1.396   c-0.984,1.164-1.051,2.656-1.051,3.133c0,2.035,1.051,3.102,1.724,3.563c0.46,0.326,1.377,0.77,2.772,0.787   c1.084,0,1.888-0.262,2.266-0.394c0.426-0.165,0.787-0.362,0.936-0.444v-1.657c-0.378,0.36-0.51,0.494-0.74,0.657   c-0.836,0.623-1.607,0.688-2.034,0.688c-0.689,0-1.477-0.213-1.968-0.705c-0.624-0.59-0.805-1.492-0.854-1.723   c-0.05-0.295-0.05-0.508-0.065-0.82H85.974z M71.436,39.652l-0.016,1.871c0.426,0.164,1.115,0.459,2.215,0.477   c1.264,0,1.92-0.394,2.363-0.771c0.836-0.74,0.902-1.625,0.902-2.052c0-0.296-0.066-1.147-0.788-1.74   c-0.476-0.392-1.165-0.606-1.739-0.836c-0.509-0.196-0.771-0.345-0.968-0.525c-0.196-0.164-0.313-0.427-0.313-0.705   c0-0.132,0.032-0.411,0.246-0.673c0.379-0.443,1.116-0.476,1.231-0.476c0.574,0,1.05,0.229,1.492,0.573   c0.148,0.1,0.279,0.197,0.41,0.313v-1.658c-0.655-0.213-1.148-0.344-1.838-0.344c-0.458,0-0.885,0.064-1.049,0.099   c-0.525,0.114-0.871,0.294-1.051,0.411c-0.722,0.475-1.18,1.328-1.18,2.182c0,0.244,0.048,0.969,0.557,1.51   c0.492,0.525,1.395,0.803,1.524,0.854c0.69,0.229,1.724,0.524,1.724,1.443c0,0.114-0.016,0.36-0.196,0.607   c-0.181,0.246-0.524,0.591-1.246,0.591c-1.052,0-1.806-0.64-2.036-0.854L71.436,39.652z M67.804,40.342   c-0.821,0.279-1.148,0.328-1.608,0.328c-0.197,0.018-0.723-0.017-1.231-0.245c-1.148-0.524-1.296-1.74-1.345-2.118   c-0.066-0.393-0.066-0.722-0.066-0.885c0-0.279,0-2.086,1.264-2.904c0.492-0.313,0.969-0.361,1.182-0.361   c1.082,0,1.543,0.754,1.674,1.115c0.132,0.344,0.132,0.738,0.132,0.854V40.342z M69.725,33.236l-1.052,0.623   c-1.444-0.589-1.919-0.737-2.773-0.737c-1.624,0-3.167,0.837-3.89,2.296c-0.443,0.904-0.475,1.839-0.475,2.167   c0,1.116,0.377,1.92,0.572,2.297c0.281,0.477,0.592,0.788,0.74,0.937c1.082,0.936,2.428,0.92,2.871,0.936   c0.295,0.016,0.574,0.016,0.854,0.016h3.151V33.236z M54.391,31.547c0.246-0.133,0.655-0.33,1.328-0.33   c0.903,0,1.854,0.396,2.297,1.216c0.066,0.114,0.214,0.394,0.214,0.771c0,0.624-0.458,1.116-0.558,1.229   c-0.426,0.477-1.018,0.937-1.018,1.576c0,0.197,0.049,0.377,0.147,0.559c0.065,0.098,0.197,0.279,0.411,0.491   c0.523,0.494,1.214,0.902,1.214,1.708c0,0.475-0.181,0.918-0.51,1.262c-0.491,0.543-1.196,0.707-1.901,0.707   c-0.806,0-1.281-0.182-1.609-0.279L54.391,31.547z M52.389,41.77h3.627c0.82-0.016,1.164-0.065,1.574-0.163   c1.492-0.362,2.231-1.362,2.478-1.889c0.247-0.525,0.263-1.033,0.263-1.23c0-1.065-0.459-1.624-0.756-1.937   c-0.146-0.13-0.295-0.263-0.443-0.41l-0.639-0.59c0.674-0.723,1.379-1.461,1.379-2.51c0-0.314-0.082-0.953-0.607-1.609   c-0.92-1.182-2.166-1.23-2.691-1.248c-0.23-0.016-0.477-0.016-0.705,0h-3.479V41.77z"/>
	<path fill="#010202" d="M131.65,16.674h-1.477v-2.887c0-0.197,0.015-0.51-0.264-0.51c-0.066,0-0.181,0.033-0.229,0.066   c-0.082,0.065-0.1,0.196-0.115,0.41c-0.115,0.754-0.328,1.494-0.82,2.066c-0.674,0.822-1.395,0.838-1.821,0.871v1.296h1.28v7.122   h1.969v-7.122h1.477V16.674z M123.878,23.68c-0.819,0.281-1.147,0.33-1.608,0.33c-0.195,0.016-0.721-0.018-1.229-0.247   c-1.149-0.524-1.296-1.74-1.347-2.116c-0.064-0.393-0.064-0.723-0.064-0.887c0-0.277,0-2.084,1.264-2.903   c0.492-0.313,0.968-0.361,1.182-0.361c1.082,0,1.541,0.755,1.673,1.116c0.131,0.344,0.131,0.738,0.131,0.853V23.68z    M125.798,16.576l-1.05,0.623c-1.443-0.592-1.92-0.738-2.771-0.738c-1.627,0-3.168,0.836-3.891,2.297   c-0.443,0.902-0.476,1.838-0.476,2.166c0,1.117,0.377,1.92,0.575,2.299c0.277,0.477,0.59,0.787,0.738,0.936   c1.082,0.935,2.428,0.917,2.87,0.935c0.296,0.017,0.575,0.017,0.854,0.017h3.15V16.576z M121.434,14.18   c0-0.64-0.508-1.182-1.165-1.182c-0.411,0-0.787,0.213-0.983,0.558c-0.164,0.263-0.182,0.493-0.182,0.608   c0,0.641,0.525,1.197,1.165,1.197c0.196,0,0.689-0.065,0.983-0.557C121.416,14.541,121.434,14.295,121.434,14.18 M125.092,14.213   c0.018-0.657-0.49-1.215-1.133-1.215c-0.228-0.016-0.835,0.099-1.081,0.756c-0.032,0.082-0.083,0.213-0.083,0.426   c-0.016,0.641,0.51,1.182,1.149,1.182S125.076,14.837,125.092,14.213 M117.133,16.674h-1.477v-2.887c0-0.197,0.016-0.51-0.262-0.51   c-0.066,0-0.182,0.033-0.231,0.066c-0.081,0.065-0.099,0.196-0.114,0.41c-0.115,0.754-0.328,1.494-0.82,2.066   c-0.673,0.822-1.395,0.838-1.821,0.871v1.296h1.279v7.122h1.97v-7.122h1.477V16.674z M108.814,14.574   c0,0.639,0.524,1.148,1.147,1.148c0.64,0,1.165-0.51,1.165-1.148c0-0.641-0.51-1.165-1.148-1.165   C109.339,13.409,108.814,13.934,108.814,14.574 M110.947,16.674h-1.953v8.436h1.953V16.674z M102.047,22.991l-0.016,1.871   c0.427,0.164,1.115,0.46,2.217,0.476c1.262,0,1.918-0.393,2.361-0.77c0.836-0.74,0.902-1.625,0.902-2.053   c0-0.295-0.066-1.148-0.787-1.739c-0.477-0.394-1.164-0.606-1.74-0.836c-0.508-0.198-0.771-0.345-0.967-0.525   c-0.197-0.163-0.313-0.427-0.313-0.707c0-0.13,0.033-0.408,0.246-0.67c0.377-0.444,1.116-0.479,1.23-0.479   c0.574,0,1.049,0.231,1.493,0.575c0.147,0.099,0.28,0.196,0.41,0.311v-1.658c-0.655-0.211-1.147-0.343-1.837-0.343   c-0.459,0-0.887,0.065-1.051,0.101c-0.524,0.113-0.87,0.293-1.051,0.408c-0.721,0.477-1.182,1.33-1.182,2.183   c0,0.246,0.051,0.968,0.559,1.511c0.492,0.525,1.395,0.803,1.525,0.852c0.689,0.23,1.724,0.524,1.724,1.445   c0,0.113-0.017,0.359-0.196,0.606s-0.525,0.591-1.248,0.591c-1.051,0-1.805-0.641-2.034-0.853L102.047,22.991z M95.563,16.674   v8.436h1.953v-7.171c0.311-0.147,0.672-0.296,1.411-0.247c-0.065,0.1-0.181,0.229-0.181,0.51c0,0.244,0.065,0.41,0.099,0.491   c0.181,0.41,0.575,0.642,1.034,0.642c0.737,0,1.181-0.543,1.181-1.25c0-0.393-0.163-0.654-0.229-0.77   c-0.395-0.59-1.147-0.607-1.789-0.641H95.563z M88.129,19.859c0.033-0.248,0.066-0.494,0.148-0.74   c0.098-0.312,0.591-1.525,1.854-1.543c0.18,0,0.559,0.033,0.969,0.295c0.738,0.46,0.854,1.166,0.902,1.97L88.129,19.859z    M94.021,20.941c-0.017-0.329,0.032-1.51-0.458-2.527c-0.889-1.789-2.791-1.953-3.383-1.953c-0.541,0-2.051,0.131-3.117,1.396   c-0.984,1.165-1.051,2.657-1.051,3.134c0,2.035,1.051,3.102,1.724,3.561c0.46,0.329,1.379,0.771,2.773,0.787   c1.083,0,1.886-0.263,2.265-0.393c0.426-0.164,0.789-0.361,0.935-0.443v-1.658c-0.377,0.361-0.509,0.492-0.737,0.656   c-0.838,0.623-1.609,0.689-2.035,0.689c-0.689,0-1.477-0.213-1.971-0.705c-0.622-0.592-0.803-1.492-0.854-1.725   c-0.047-0.293-0.047-0.506-0.064-0.818H94.021z M85.703,16.674h-1.756l-2.413,6.729c-0.114,0.36-0.13,0.443-0.393,0.443   l-2.544-7.172H76.48l3.117,8.436H80.6c0.605-0.017,1.082-0.034,1.607-0.361c0.689-0.443,1.018-1.28,1.28-2.002L85.703,16.674z    M73.27,14.574c0,0.639,0.525,1.148,1.148,1.148c0.639,0,1.164-0.51,1.164-1.148c0-0.641-0.508-1.165-1.147-1.165   S73.27,13.934,73.27,14.574 M75.402,16.674h-1.953v8.436h1.953V16.674z M64.104,16.674v8.436h1.954v-6.975   c0.327-0.164,0.688-0.361,1.46-0.361c1.264,0,1.756,0.574,1.936,1.133c0.083,0.262,0.116,0.525,0.133,1.098v5.105h1.936v-5.105   c-0.066-0.951-0.131-1.787-0.902-2.444c-0.936-0.803-2.166-0.886-4.562-0.886H64.104z M62.086,13.523h-2.002v6.598   c0.016,1.016,0,1.541-0.131,2.034c-0.148,0.509-0.41,0.836-0.543,1c-0.262,0.296-0.655,0.657-1.525,0.806   c-0.344,0.064-0.623,0.064-0.756,0.064c-1.723,0-2.428-0.918-2.691-1.592c-0.195-0.525-0.244-1.148-0.227-2.313v-6.598h-2.004v6.17   c-0.016,1.361,0.033,2.101,0.229,2.709c0.214,0.722,0.673,1.395,1.28,1.853c0.525,0.428,1.689,1.067,3.412,1.067   c1.56,0,2.676-0.541,3.186-0.854c1.196-0.789,1.541-1.938,1.657-2.461c0.114-0.559,0.13-1.133,0.114-2.314V13.523z"/>
	<path fill="#010202" d="M22.48,35.348c-0.377-0.369-0.945,0.188-0.568,0.554l2.723,2.661l0.566-0.555   C25.201,38.008,22.805,35.664,22.48,35.348 M18.084,38.564l-0.567-0.555l2.722-2.662c0.377-0.367,0.944,0.189,0.567,0.557   C20.482,36.22,18.084,38.564,18.084,38.564 M6.567,19.792c0.376,0.368-0.192,0.923-0.569,0.556l-2.721-2.663l0.569-0.554   C3.847,17.131,6.242,19.475,6.567,19.792 M3.279,24.093l0.568,0.556l2.721-2.662c0.377-0.368-0.191-0.924-0.566-0.557   C5.676,21.748,3.279,24.093,3.279,24.093 M20.24,6.42c0.377,0.366,0.945-0.189,0.568-0.557l-2.721-2.66L17.52,3.758   C17.52,3.758,19.918,6.102,20.24,6.42 M24.631,3.203l0.568,0.555L22.479,6.42c-0.378,0.366-0.945-0.189-0.568-0.557   C22.234,5.547,24.631,3.203,24.631,3.203 M36.148,19.787c-0.375,0.368,0.191,0.924,0.569,0.555l2.722-2.66l-0.568-0.555   C38.871,17.127,36.473,19.471,36.148,19.787 M39.441,24.085l-0.567,0.554l-2.722-2.66c-0.376-0.368,0.191-0.924,0.568-0.555   C37.044,21.739,39.441,24.085,39.441,24.085 M13.435,12.586c0.377,0.369-0.19,0.924-0.567,0.556L3.279,3.766l0.567-0.555   C3.847,3.211,13.111,12.27,13.435,12.586 M38.874,3.207l0.567,0.557l-9.589,9.376c-0.377,0.368-0.944-0.188-0.568-0.557   C29.609,12.267,38.874,3.207,38.874,3.207 M12.867,28.631c0.375-0.367,0.944,0.188,0.567,0.557l-9.588,9.375l-0.569-0.555   C3.277,38.008,12.543,28.947,12.867,28.631 M39.441,38.005l-0.567,0.556l-9.59-9.376c-0.376-0.368,0.191-0.925,0.568-0.556   C30.177,28.945,39.441,38.005,39.441,38.005 M13.387,26.455c0.375,0.369-0.192,0.923-0.569,0.555c0,0-4.815-4.709-5.192-5.077   s0.191-0.923,0.566-0.556C8.191,21.377,13.061,26.139,13.387,26.455 M22.479,7.501c-0.377-0.366-0.943,0.188-0.568,0.558   c0.377,0.367,5.193,5.074,5.193,5.074c0.377,0.369,0.944-0.186,0.568-0.554C27.347,12.262,22.479,7.501,22.479,7.501    M27.672,26.502c0.376,0.367-0.191,0.924-0.568,0.557c0,0-4.816-4.71-5.193-5.078c-0.375-0.369,0.191-0.924,0.568-0.556   C22.479,21.425,27.347,26.186,27.672,26.502 M35.047,21.98c0.377-0.369-0.191-0.924-0.568-0.557   c-0.375,0.368-5.191,5.078-5.191,5.078c-0.376,0.367,0.191,0.924,0.568,0.556C30.18,26.74,35.047,21.98,35.047,21.98    M15.613,13.133c-0.377,0.369-0.944-0.186-0.568-0.554c0,0,4.816-4.71,5.193-5.078c0.375-0.368,0.944,0.186,0.567,0.556   C20.806,8.057,15.938,12.816,15.613,13.133 M20.806,21.98c0.377-0.369-0.192-0.924-0.567-0.557   c-0.377,0.368-5.193,5.078-5.193,5.078c-0.376,0.367,0.191,0.924,0.568,0.556C15.938,26.74,20.806,21.98,20.806,21.98    M13.438,15.27c0.375-0.368-0.192-0.924-0.567-0.557c0,0-4.817,4.709-5.193,5.077c-0.377,0.369,0.191,0.924,0.568,0.556   C8.246,20.346,13.113,15.586,13.438,15.27 M22.479,34.27c-0.377,0.367-0.943-0.189-0.566-0.558   c0.375-0.366,5.191-5.077,5.191-5.077c0.377-0.367,0.945,0.188,0.568,0.556C27.348,29.509,22.479,34.27,22.479,34.27 M27.672,15.27   c0.377-0.368-0.191-0.924-0.568-0.557c0,0-4.816,4.709-5.191,5.077c-0.377,0.369,0.189,0.924,0.566,0.556   C22.479,20.346,27.348,15.586,27.672,15.27 M35.047,19.792c0.377,0.368-0.191,0.923-0.568,0.556   c-0.375-0.369-5.191-5.078-5.191-5.078c-0.376-0.368,0.191-0.924,0.568-0.556C30.18,15.031,35.047,19.792,35.047,19.792    M15.613,28.637c-0.377-0.369-0.944,0.188-0.568,0.555c0,0,4.816,4.709,5.193,5.078c0.375,0.367,0.944-0.187,0.567-0.557   C20.806,33.713,15.938,28.953,15.613,28.637 M20.806,19.792c0.377,0.368-0.192,0.923-0.567,0.556   c-0.377-0.369-5.193-5.078-5.193-5.078c-0.376-0.368,0.191-0.924,0.568-0.556C15.938,15.031,20.806,19.792,20.806,19.792 M0,27.454   v0.785h12.701c0.532,0,0.532-0.785,0-0.785H0z M42.719,27.454v0.785H30.018c-0.533,0-0.533-0.785,0-0.785H42.719z M0,13.53v0.785   h12.701c0.532,0,0.532-0.785,0-0.785H0z M42.719,13.53v0.785H30.018c-0.533,0-0.533-0.785,0-0.785H42.719z M15.777,27.454   c-0.532,0-0.532,0.785,0,0.785h11.162c0.533,0,0.533-0.785,0-0.785H15.777z M26.939,13.53c0.533,0,0.533,0.785,0,0.785H15.777   c-0.532,0-0.532-0.785,0-0.785H26.939z M28.077,41.77h0.802V29.352c0-0.521-0.802-0.521-0.802,0V41.77z M28.077,0h0.802v12.42   c0,0.52-0.802,0.52-0.802,0V0z M28.077,26.342c0,0.521,0.802,0.521,0.802,0V15.428c0-0.521-0.802-0.521-0.802,0V26.342z    M13.838,29.352c0-0.521,0.803-0.521,0.803,0V41.77h-0.803V29.352z M13.838,12.42c0,0.52,0.803,0.52,0.803,0V0h-0.803V12.42z    M13.838,15.428c0-0.52,0.803-0.52,0.803,0v10.915c0,0.521-0.803,0.521-0.803,0V15.428z"/>
</g>
</svg>